<svg version="1.1" id="Layer_1" xmlns="http://www.w3.org/2000/svg" xmlns:xlink="http://www.w3.org/1999/xlink" x="0px" y="0px"
	 width="100%" viewBox="0 0 1069 228" enable-background="new 0 0 1069 228" xml:space="preserve">
<path fill="#FEFEFE" opacity="1.000000" stroke="none" 
	d="
M727.000000,229.000000 
	C484.713226,229.000000 242.926483,229.000000 1.069859,229.000000 
	C1.069859,153.061264 1.069859,77.122444 1.069859,1.091814 
	C357.333313,1.091814 713.666687,1.091814 1069.966797,1.091814 
	C1069.966797,77.073608 1069.966797,153.036819 1069.966797,229.000000 
	C955.789001,229.000000 841.644470,229.000000 727.000000,229.000000 
M855.762939,98.560875 
	C861.061523,126.477287 888.665405,145.752335 921.544434,137.228165 
	C951.484253,129.466003 966.513977,97.865807 955.471008,67.695320 
	C945.474976,40.385147 911.697876,27.153715 884.433655,39.868031 
	C862.047119,50.307739 851.362488,71.714737 855.762939,98.560875 
M1043.045166,45.403076 
	C1037.331787,42.899826 1031.756470,38.701023 1025.878174,38.221867 
	C1010.319946,36.953686 994.630737,37.285999 978.993042,37.013775 
	C977.730286,36.991798 976.463257,37.217590 975.179321,37.329899 
	C975.179321,70.785065 975.179321,103.893181 975.179321,137.206055 
	C982.430664,137.206055 989.493103,137.206055 997.061890,137.206055 
	C997.061890,125.941689 997.061890,115.029808 997.061890,103.849953 
	C1002.048096,103.849953 1006.554077,103.562965 1010.989990,103.994637 
	C1012.706360,104.161659 1014.942200,105.575981 1015.783142,107.072800 
	C1020.832092,116.059418 1025.492310,125.263550 1030.426880,134.316223 
	C1031.133057,135.611664 1032.585815,137.359177 1033.751587,137.404877 
	C1041.004150,137.689255 1048.273438,137.548157 1056.422119,137.548157 
	C1052.639282,130.704834 1049.303467,124.645599 1045.944214,118.599411 
	C1042.568604,112.524246 1039.169678,106.462128 1035.816650,100.457977 
	C1057.696289,81.904350 1060.472534,61.788673 1043.045166,45.403076 
M441.133087,125.643379 
	C448.970551,118.712395 454.032684,110.167404 456.492920,99.972618 
	C463.524323,70.835548 446.591675,42.240673 418.103607,38.392284 
	C402.485901,36.282520 386.349182,38.015072 370.233948,38.015072 
	C370.233948,70.667343 370.233948,103.865723 370.233948,137.272659 
	C384.078552,137.272659 397.691650,137.481705 411.294983,137.206848 
	C422.274872,136.985001 432.075104,133.110764 441.133087,125.643379 
M351.762482,48.428444 
	C351.762482,44.685738 351.762482,40.943035 351.762482,37.365440 
	C328.554565,37.365440 306.161011,37.365440 283.740051,37.365440 
	C283.740051,70.820961 283.740051,103.904854 283.740051,137.242142 
	C306.930847,137.242142 329.818024,137.242142 352.668549,137.242142 
	C352.668549,130.985825 352.668549,125.060974 352.668549,118.631020 
	C336.787872,118.631020 321.216949,118.631020 305.609802,118.631020 
	C305.609802,111.059349 305.609802,104.009903 305.609802,96.440483 
	C319.911926,96.440483 333.835785,96.440483 347.726257,96.440483 
	C347.726257,89.983528 347.726257,84.061958 347.726257,77.655380 
	C333.507294,77.655380 319.597961,77.655380 305.501404,77.655380 
	C305.501404,70.252617 305.501404,63.346676 305.501404,55.874401 
	C320.990662,55.874401 336.210571,55.874401 351.762207,55.874401 
	C351.762207,53.336411 351.762207,51.363117 351.762482,48.428444 
M484.583252,127.931374 
	C491.445587,134.205063 499.567230,137.682266 508.748291,138.789886 
	C537.168762,142.218582 560.057678,125.723259 559.038269,96.002510 
	C558.427368,78.191788 558.926514,60.342991 558.926697,42.511303 
	C558.926697,40.753590 558.926697,38.995880 558.926697,37.259438 
	C551.290588,37.259438 544.361328,37.259438 537.026062,37.259438 
	C537.026062,39.144733 537.026123,40.772228 537.026123,42.399723 
	C537.026001,61.064667 537.054688,79.729675 537.015747,98.394531 
	C536.988464,111.452103 528.694641,119.904091 515.968445,119.960960 
	C503.239075,120.017853 494.959198,111.606316 494.936188,98.495956 
	C494.903412,79.831070 494.927460,61.166084 494.927216,42.501141 
	C494.927185,40.744370 494.927216,38.987595 494.927216,37.262886 
	C487.283997,37.262886 480.354645,37.262886 473.258728,37.262886 
	C473.165894,38.140942 473.040405,38.774719 473.040375,39.408501 
	C473.039764,60.073135 472.914703,80.739120 473.119507,101.401825 
	C473.219086,111.449783 476.917023,120.230858 484.583252,127.931374 
M759.392883,121.022713 
	C749.127991,94.340187 738.801880,67.680878 728.677856,40.945019 
	C727.448547,37.698727 725.792236,36.682293 722.477112,36.921146 
	C718.333496,37.219692 714.138000,37.204750 709.991577,36.926861 
	C706.697388,36.706093 705.109924,37.676949 703.858337,40.975403 
	C692.183289,71.744072 680.270630,102.422554 668.443298,133.133514 
	C667.937500,134.446793 667.591919,135.821777 667.045654,137.572037 
	C673.596313,137.572037 679.586182,137.422531 685.563232,137.633636 
	C688.660034,137.743042 690.456299,137.035599 691.262634,133.709457 
	C692.119019,130.177231 694.051575,126.897072 694.826843,123.356339 
	C695.740662,119.182808 698.015503,118.277458 701.914062,118.490547 
	C707.727783,118.808304 713.572205,118.528351 719.402771,118.585411 
	C724.715149,118.637398 731.306824,116.930023 734.975525,119.442657 
	C738.592712,121.920036 739.251404,128.718613 741.204285,133.622833 
	C741.511963,134.395508 741.674927,135.261520 742.132141,135.928543 
	C742.559875,136.552597 743.283142,137.402847 743.887268,137.411667 
	C750.944092,137.514893 758.003052,137.477814 765.682739,137.477814 
	C763.473083,131.618637 761.606140,126.668198 759.392883,121.022713 
M641.342651,136.975754 
	C650.528564,133.942200 658.228760,128.778671 664.811951,120.968781 
	C659.498779,116.683006 654.539185,112.682449 649.632141,108.724304 
	C640.151855,117.835983 631.033752,121.288811 621.519958,119.591934 
	C604.076660,116.480782 593.201355,99.843704 596.516357,81.341492 
	C599.712219,63.504353 612.396729,53.357559 629.427368,55.038769 
	C637.014465,55.787746 643.179138,59.499790 647.818237,63.877350 
	C652.808899,59.223267 657.591553,54.763187 662.368774,50.308163 
	C641.763733,28.957167 603.397583,30.652023 585.171265,53.746483 
	C571.082214,71.598656 569.897034,98.063652 582.345947,116.837715 
	C594.444336,135.083237 618.149109,143.364655 641.342651,136.975754 
M797.025330,78.500046 
	C797.025330,98.070747 797.025330,117.641441 797.025330,137.270721 
	C804.667542,137.270721 811.595215,137.270721 819.030762,137.270721 
	C819.030762,110.094330 819.030762,83.208534 819.030762,55.755013 
	C828.742676,55.755013 837.950806,55.755013 847.035583,55.755013 
	C847.035583,49.249485 847.035583,43.323559 847.035583,37.201515 
	C820.819153,37.201515 794.899475,37.201515 768.715332,37.201515 
	C768.715332,43.475407 768.715332,49.552567 768.715332,56.113663 
	C778.230652,56.113663 787.475891,56.113663 797.025269,56.113663 
	C797.025269,63.563042 797.025269,70.531578 797.025330,78.500046 
M189.860245,50.639473 
	C189.060471,49.372505 188.275970,48.095581 187.458710,46.839996 
	C157.149231,0.274570 89.639442,-2.519923 55.536446,41.398628 
	C41.637756,59.297653 36.570518,79.732986 39.290878,101.970963 
	C40.621868,112.851349 43.821056,123.375366 50.301876,132.684769 
	C53.358917,131.943329 56.179970,131.259125 59.487869,130.456848 
	C49.658703,114.676048 45.966866,97.957787 48.760929,79.961197 
	C51.562023,61.919334 59.874508,46.812073 74.215691,35.557301 
	C101.809082,13.902360 136.916977,13.739771 164.285553,34.880718 
	C176.535202,44.342995 184.625839,56.842014 188.686844,71.723221 
	C194.325806,92.386688 190.913452,111.911568 179.904068,130.435181 
	C181.655121,130.923721 183.034271,131.379288 184.446014,131.683548 
	C186.031937,132.025345 187.647308,132.230515 189.353607,132.512268 
	C204.173416,105.412163 204.551849,78.424400 189.860245,50.639473 
M124.172188,177.500031 
	C124.172188,169.061035 124.172188,160.622055 124.172188,152.226715 
	C150.375488,143.592041 175.416458,145.970673 200.264786,155.812958 
	C205.749130,157.985291 209.105438,160.375336 207.947556,166.659012 
	C207.898926,166.922928 208.188141,167.249100 208.390686,167.705704 
	C211.097412,168.317841 213.891251,168.949677 217.008728,169.654694 
	C217.008728,164.889206 217.298828,160.540771 216.864655,156.265915 
	C216.693146,154.577362 215.281036,152.277802 213.803619,151.567795 
	C184.724289,137.593033 154.638412,133.244385 123.168373,142.433304 
	C120.924698,143.088425 118.155792,143.091095 115.913902,142.433319 
	C84.433342,133.196716 54.372753,137.673920 25.273117,151.586227 
	C23.997917,152.195877 22.382488,153.719849 22.299772,154.913147 
	C21.962080,159.784836 22.159014,164.693588 22.159014,169.815659 
	C25.622801,168.937744 28.473639,168.215164 31.448702,167.461121 
	C31.498877,166.489792 31.701057,165.641891 31.557123,164.857529 
	C30.712429,160.254303 32.630188,157.871155 37.121422,156.622772 
	C46.226612,154.091858 55.072639,150.431061 64.294060,148.558670 
	C81.362289,145.093002 98.296997,146.617142 115.195763,152.271210 
	C115.195763,174.384567 115.195763,196.288315 115.195763,218.255493 
	C118.374733,218.255493 121.117836,218.255493 124.172256,218.255493 
	C124.172256,204.786026 124.172256,191.643021 124.172188,177.500031 
M35.152122,218.424606 
	C36.142525,218.316940 37.145424,218.275513 38.121384,218.091339 
	C47.440784,216.332565 54.749298,207.415131 54.795593,197.778519 
	C54.841908,188.137939 47.347900,179.102310 37.708744,177.176651 
	C28.378216,175.312653 18.480692,180.983109 14.696042,189.795364 
	C8.990965,203.079193 19.157427,219.086533 35.152122,218.424606 
M221.428589,210.843674 
	C227.222229,203.326492 227.636414,195.342590 223.226471,187.111160 
	C219.499008,180.153625 210.633743,175.741821 202.524368,177.116684 
	C193.767883,178.601257 187.846069,183.689911 185.348145,192.395447 
	C182.803101,201.265182 186.819977,210.825806 195.160355,215.845718 
	C203.239624,220.708450 213.298096,218.979630 221.428589,210.843674 
M552.939270,175.362747 
	C551.948181,178.464890 550.957092,181.567032 549.600037,185.814651 
	C548.140076,180.201492 546.901306,175.899582 545.924805,171.538940 
	C545.137878,168.024490 543.226013,167.392090 539.788757,168.809433 
	C541.685730,176.084808 543.445618,183.334015 545.583801,190.469818 
	C545.888306,191.485931 548.085510,192.607300 549.303467,192.500595 
	C550.703247,192.377975 552.641663,191.241318 553.198364,190.021378 
	C554.766235,186.585495 555.745483,182.880981 557.360962,178.081635 
	C558.931885,183.140488 559.846313,186.881378 561.326843,190.382904 
	C561.789734,191.477692 563.767761,192.485901 565.073853,192.513550 
	C566.367737,192.540955 568.558655,191.543304 568.858826,190.544968 
	C571.035278,183.307678 572.832581,175.956375 574.739136,168.681961 
	C570.980225,167.408585 569.266602,168.242447 568.568298,171.796844 
	C567.716797,176.130753 566.262329,180.346191 564.751587,185.746307 
	C563.341370,181.224625 562.509460,177.853958 561.223267,174.666641 
	C560.278320,172.325180 561.304565,167.923935 557.322998,168.448746 
	C555.678711,168.665482 554.502380,172.432312 552.939270,175.362747 
M613.297302,182.228592 
	C611.093018,178.710007 608.722473,175.282333 606.733337,171.646027 
	C604.917725,168.326904 602.567139,167.220810 598.538208,168.833282 
	C598.538208,175.320633 598.658813,181.946152 598.494202,188.564606 
	C598.390930,192.717285 600.101135,193.439804 604.105286,191.862274 
	C604.105286,187.034592 604.105286,182.219482 604.105286,177.404373 
	C607.408203,181.176895 610.007629,185.005066 612.189697,189.057953 
	C613.994019,192.409225 616.312500,193.551620 620.458435,191.946075 
	C620.458435,185.365662 620.366211,178.590439 620.492737,171.819305 
	C620.569458,167.715942 618.566467,167.567856 615.136475,168.773514 
	C615.136475,173.101669 615.171997,177.397797 615.075806,181.690979 
	C615.067261,182.076523 614.206482,182.442978 613.297302,182.228592 
M96.818283,95.592163 
	C91.485466,92.755142 86.584274,93.031837 83.185364,96.680382 
	C79.910477,100.195808 79.506012,104.375137 81.500664,108.650627 
	C83.382957,112.685280 88.059128,114.622902 92.809235,113.936890 
	C99.713516,112.939774 104.615402,102.391701 96.818283,95.592163 
M148.536972,93.615166 
	C144.016083,93.884567 140.596573,95.849915 139.008774,100.230560 
	C136.957642,105.889503 140.097290,112.221642 145.576599,113.779472 
	C151.397873,115.434525 157.247940,112.064957 158.650864,106.248878 
	C160.131912,100.108879 156.262878,94.892342 148.536972,93.615166 
M954.411499,171.942093 
	C954.768494,167.952454 952.739380,167.483246 949.435303,168.599899 
	C949.435303,176.551971 949.435303,184.428360 949.435303,192.533768 
	C958.336548,193.294525 952.018005,185.472351 955.815613,183.022217 
	C958.049316,183.022217 960.945190,183.022217 963.777832,183.022217 
	C965.597473,192.976135 965.597473,192.976135 969.508911,191.798828 
	C969.508911,184.035263 969.508911,176.284943 969.508911,168.375885 
	C967.774963,168.375885 966.356506,168.375885 964.647278,168.375885 
	C964.484436,171.551971 964.334045,174.484573 964.173340,177.618652 
	C960.881897,177.618652 957.836182,177.618652 954.411865,177.618652 
	C954.411865,175.795044 954.411865,174.315674 954.411499,171.942093 
M335.215576,169.371155 
	C329.080719,173.850311 327.335114,180.111465 330.484711,186.339996 
	C333.219727,191.748703 339.685608,194.158066 345.915131,192.089813 
	C351.557922,190.216370 354.829041,184.520615 353.895935,178.193390 
	C352.677063,169.928192 344.984253,166.005905 335.215576,169.371155 
M506.986481,192.667770 
	C514.513367,190.632126 518.066589,186.026749 517.391296,179.181732 
	C516.748230,172.662308 512.441040,168.323868 506.197357,167.906525 
	C498.590973,167.398056 493.043701,172.071350 492.658997,179.311829 
	C492.212830,187.709106 496.937897,192.409698 506.986481,192.667770 
M677.035889,192.575668 
	C677.509705,192.138077 678.136841,191.785385 678.433472,191.249695 
	C681.185547,186.278580 687.711670,186.209457 691.216370,190.831100 
	C692.148071,192.059769 694.427002,192.266815 697.308655,193.440231 
	C694.067627,184.603958 691.556274,177.403305 688.699158,170.342606 
	C688.262695,169.263962 686.237305,168.280899 684.928589,168.257065 
	C683.627625,168.233383 681.538086,169.164352 681.113220,170.211655 
	C678.198853,177.396530 675.630920,184.721970 672.828308,192.336929 
	C674.350891,192.482056 675.315552,192.573990 677.035889,192.575668 
M856.443420,188.743179 
	C856.163940,189.929810 855.884460,191.116440 855.299927,193.598419 
	C857.859375,192.477600 859.878357,192.225464 860.782043,191.087555 
	C864.556458,186.334885 870.145264,186.263840 873.640015,190.906067 
	C874.544678,192.107819 876.664612,192.394669 878.226379,193.101761 
	C878.525879,192.729507 878.825439,192.357239 879.125000,191.984970 
	C876.550659,185.026520 874.121582,178.007767 871.278625,171.160858 
	C870.714783,169.802917 868.549255,168.302933 867.146606,168.326340 
	C865.731567,168.349960 863.664368,169.893997 863.068848,171.281067 
	C860.713318,176.767410 858.822876,182.453445 856.443420,188.743179 
M437.771271,192.650665 
	C438.822968,192.483780 439.874695,192.316910 441.395447,192.075592 
	C439.052460,188.413574 437.019196,185.235703 435.003693,182.085541 
	C439.452026,178.515289 440.327759,176.427597 439.041473,172.833725 
	C437.588623,168.774628 434.207458,168.184448 430.552124,168.127335 
	C428.123047,168.089371 425.692871,168.120117 422.928375,168.120117 
	C422.928375,175.474136 423.070465,182.121964 422.874756,188.759796 
	C422.758270,192.711075 424.390503,193.337891 428.334656,191.876144 
	C428.334656,188.723587 428.334656,185.437363 428.334656,181.369598 
	C431.682617,185.690231 434.358459,189.143509 437.771271,192.650665 
M1035.035034,187.288254 
	C1035.108276,188.906448 1035.181641,190.524628 1035.262573,192.309418 
	C1036.975586,192.309418 1038.360596,192.309418 1040.483032,192.309418 
	C1040.483032,188.709656 1040.483032,185.442200 1040.483032,181.992249 
	C1045.803711,184.610611 1044.521484,194.084351 1053.732056,192.214554 
	C1051.215698,188.357788 1049.087646,185.096222 1046.896851,181.738403 
	C1050.664185,179.931183 1052.613892,177.551056 1051.543457,173.595917 
	C1050.512207,169.785431 1047.706787,168.327957 1044.074829,168.177368 
	C1041.160889,168.056534 1038.237915,168.152939 1035.034912,168.152939 
	C1035.034912,174.716843 1035.034912,180.528381 1035.035034,187.288254 
M901.200500,182.062225 
	C903.163696,189.311920 906.518494,192.370560 913.020630,192.838898 
	C918.675598,193.246231 922.302856,191.022827 924.388794,184.860809 
	C922.311096,184.940964 920.180969,185.227921 918.596985,186.312454 
	C915.147339,188.674484 910.812683,188.611176 908.200439,185.704788 
	C905.583740,182.793396 905.682556,177.502777 908.405396,174.725571 
	C911.021973,172.056717 915.971313,171.753204 918.687561,174.859787 
	C921.173279,177.702759 922.746643,176.288132 924.872498,175.059402 
	C921.703125,168.850067 916.782593,166.590866 910.328491,168.154938 
	C904.444641,169.580826 901.357605,173.978256 901.200500,182.062225 
M821.917114,192.706299 
	C824.407898,192.706421 826.901123,192.635834 829.388855,192.723038 
	C833.253418,192.858505 833.421631,190.999802 832.038269,187.759262 
	C829.371460,187.759262 826.774536,187.759262 823.832336,187.759262 
	C823.959595,185.919907 824.056580,184.517944 824.127625,183.491104 
	C826.656189,181.482391 832.874878,185.072723 831.490417,178.170181 
	C828.656616,177.980515 826.390015,177.828827 823.800049,177.655487 
	C823.951233,175.880280 824.070557,174.479767 824.221680,172.705154 
	C826.365295,172.705154 828.231201,172.993942 829.939819,172.600357 
	C831.019958,172.351547 831.865479,171.084259 832.816223,170.273819 
	C831.955017,169.547714 831.129639,168.251785 830.226257,168.194901 
	C826.470459,167.958450 822.691101,168.095505 818.392334,168.095505 
	C818.392334,175.894714 818.312561,183.160339 818.507874,190.418549 
	C818.528870,191.198929 820.149109,191.936264 821.917114,192.706299 
M383.116730,182.948013 
	C383.116730,178.168671 383.116730,173.389313 383.116730,168.473587 
	C381.175171,168.473587 379.802643,168.473587 378.219513,168.473587 
	C378.145966,169.930176 378.041534,171.067886 378.039490,172.205811 
	C378.032013,176.363037 377.858856,180.533035 378.121948,184.674469 
	C378.467865,190.119278 382.215393,193.077469 387.999115,192.871338 
	C393.673309,192.669113 396.870667,189.825653 397.043213,184.415314 
	C397.202087,179.435867 397.029297,174.445557 396.972961,169.460358 
	C396.969696,169.171799 396.700195,168.886261 396.373535,168.242416 
	C395.152527,168.297546 393.780365,168.359497 392.039886,168.438065 
	C392.039886,173.289169 392.384125,177.792267 391.886719,182.200378 
	C391.656952,184.236786 390.218567,187.076996 388.560303,187.806000 
	C385.591003,189.111374 383.627167,187.017990 383.116730,182.948013 
M1009.973206,169.543686 
	C1005.498230,168.879028 1001.023254,168.214355 996.242310,167.504242 
	C996.242310,176.522858 996.242310,184.376373 996.242310,192.176331 
	C1008.254639,193.874802 1010.282593,193.244293 1009.268860,187.896286 
	C1006.737915,187.896286 1004.134583,187.896286 1001.402100,187.896286 
	C1001.402100,185.990799 1001.402100,184.468658 1001.402100,182.896347 
	C1004.051819,182.728546 1006.335571,182.583923 1008.745239,182.431320 
	C1008.745239,180.866104 1008.745239,179.626816 1008.745239,178.178421 
	C1006.097961,178.016937 1003.688538,177.869949 1000.998352,177.705841 
	C1001.121155,175.893936 1001.216919,174.480988 1001.338806,172.682938 
	C1003.446716,172.682938 1005.303101,172.953812 1007.022583,172.585388 
	C1008.124573,172.349274 1009.024597,171.170334 1009.973206,169.543686 
M294.203613,183.818466 
	C294.203613,186.591476 294.203613,189.364471 294.203613,192.090393 
	C297.923035,193.221191 300.156158,192.740463 299.597504,188.775894 
	C298.723419,182.572540 300.895538,177.448456 304.632935,172.724121 
	C305.589935,171.514389 306.247925,170.068100 307.092346,168.648010 
	C300.068542,166.096573 300.297394,173.480072 296.881958,175.260178 
	C293.438721,173.179108 293.687500,165.978958 287.221619,168.683014 
	C289.614197,173.570480 291.907532,178.255264 294.203613,183.818466 
M783.971985,190.068497 
	C784.297241,194.240814 786.776978,192.406448 789.209839,192.049576 
	C789.209839,185.551727 789.209839,179.294250 789.209839,173.015915 
	C791.209656,172.759949 792.824097,172.553299 796.207642,172.120224 
	C794.341553,170.202713 793.384949,168.335617 792.296387,168.255188 
	C787.716675,167.916824 783.097595,168.112152 778.664246,168.112152 
	C776.499695,174.294708 781.785583,171.865891 783.968567,173.454483 
	C783.968567,178.576050 783.968567,183.865921 783.971985,190.068497 
M720.309326,179.515503 
	C720.309326,183.775253 720.309326,188.035004 720.309326,192.780380 
	C722.561951,192.572433 724.084778,192.431854 725.427124,192.307938 
	C725.427124,183.950851 725.427124,176.206604 725.427124,168.390625 
	C723.665283,168.390625 722.247070,168.390625 720.309814,168.390625 
	C720.309814,171.959076 720.309814,175.246002 720.309326,179.515503 
z"/>
<path fill="#51418B" opacity="1.000000" stroke="none" 
	d="
M855.662415,98.137329 
	C851.362488,71.714737 862.047119,50.307739 884.433655,39.868031 
	C911.697876,27.153715 945.474976,40.385147 955.471008,67.695320 
	C966.513977,97.865807 951.484253,129.466003 921.544434,137.228165 
	C888.665405,145.752335 861.061523,126.477287 855.662415,98.137329 
M933.728027,102.026329 
	C936.473877,95.066719 937.166809,87.940575 936.025085,80.513641 
	C932.647827,58.544704 908.101196,47.308586 890.102600,59.874451 
	C879.596252,67.209564 876.258484,78.093002 877.080261,90.477180 
	C878.093018,105.740089 887.574280,116.784111 901.943604,119.531708 
	C914.522339,121.936920 927.218506,115.132965 933.728027,102.026329 
z"/>
<path fill="#51418B" opacity="1.000000" stroke="none" 
	d="
M1043.317627,45.637871 
	C1060.472534,61.788673 1057.696289,81.904350 1035.816650,100.457977 
	C1039.169678,106.462128 1042.568604,112.524246 1045.944214,118.599411 
	C1049.303467,124.645599 1052.639282,130.704834 1056.422119,137.548157 
	C1048.273438,137.548157 1041.004150,137.689255 1033.751587,137.404877 
	C1032.585815,137.359177 1031.133057,135.611664 1030.426880,134.316223 
	C1025.492310,125.263550 1020.832092,116.059418 1015.783142,107.072800 
	C1014.942200,105.575981 1012.706360,104.161659 1010.989990,103.994637 
	C1006.554077,103.562965 1002.048096,103.849953 997.061890,103.849953 
	C997.061890,115.029808 997.061890,125.941689 997.061890,137.206055 
	C989.493103,137.206055 982.430664,137.206055 975.179321,137.206055 
	C975.179321,103.893181 975.179321,70.785065 975.179321,37.329899 
	C976.463257,37.217590 977.730286,36.991798 978.993042,37.013775 
	C994.630737,37.285999 1010.319946,36.953686 1025.878174,38.221867 
	C1031.756470,38.701023 1037.331787,42.899826 1043.317627,45.637871 
M996.879150,82.319794 
	C997.704468,83.209610 998.510071,84.848145 999.358276,84.870522 
	C1006.017761,85.046280 1012.711365,85.267494 1019.343445,84.779907 
	C1026.784912,84.232819 1032.176147,77.941284 1032.211914,70.680725 
	C1032.248291,63.338406 1027.027222,56.819153 1019.669373,56.274460 
	C1012.258484,55.725845 1004.775391,56.153694 996.876160,56.153694 
	C996.876160,64.772697 996.876160,73.060104 996.879150,82.319794 
z"/>
<path fill="#51418B" opacity="1.000000" stroke="none" 
	d="
M440.864746,125.882393 
	C432.075104,133.110764 422.274872,136.985001 411.294983,137.206848 
	C397.691650,137.481705 384.078552,137.272659 370.233948,137.272659 
	C370.233948,103.865723 370.233948,70.667343 370.233948,38.015072 
	C386.349182,38.015072 402.485901,36.282520 418.103607,38.392284 
	C446.591675,42.240673 463.524323,70.835548 456.492920,99.972618 
	C454.032684,110.167404 448.970551,118.712395 440.864746,125.882393 
M417.212158,117.004288 
	C429.280731,112.123680 434.644196,102.525528 435.344421,90.152069 
	C436.002441,78.523941 433.343536,67.950401 423.112274,60.723454 
	C413.582031,53.991688 402.770569,56.445072 392.304077,56.034531 
	C392.304077,77.220215 392.304077,97.894592 392.304077,119.543388 
	C400.669739,118.738991 408.556824,117.980614 417.212158,117.004288 
z"/>
<path fill="#51418B" opacity="1.000000" stroke="none" 
	d="
M351.762329,48.909134 
	C351.762207,51.363117 351.762207,53.336411 351.762207,55.874401 
	C336.210571,55.874401 320.990662,55.874401 305.501404,55.874401 
	C305.501404,63.346676 305.501404,70.252617 305.501404,77.655380 
	C319.597961,77.655380 333.507294,77.655380 347.726257,77.655380 
	C347.726257,84.061958 347.726257,89.983528 347.726257,96.440483 
	C333.835785,96.440483 319.911926,96.440483 305.609802,96.440483 
	C305.609802,104.009903 305.609802,111.059349 305.609802,118.631020 
	C321.216949,118.631020 336.787872,118.631020 352.668549,118.631020 
	C352.668549,125.060974 352.668549,130.985825 352.668549,137.242142 
	C329.818024,137.242142 306.930847,137.242142 283.740051,137.242142 
	C283.740051,103.904854 283.740051,70.820961 283.740051,37.365440 
	C306.161011,37.365440 328.554565,37.365440 351.762482,37.365440 
	C351.762482,40.943035 351.762482,44.685738 351.762329,48.909134 
z"/>
<path fill="#51418B" opacity="1.000000" stroke="none" 
	d="
M484.330750,127.680641 
	C476.917023,120.230858 473.219086,111.449783 473.119507,101.401825 
	C472.914703,80.739120 473.039764,60.073135 473.040375,39.408501 
	C473.040405,38.774719 473.165894,38.140942 473.258728,37.262886 
	C480.354645,37.262886 487.283997,37.262886 494.927216,37.262886 
	C494.927216,38.987595 494.927185,40.744370 494.927216,42.501141 
	C494.927460,61.166084 494.903412,79.831070 494.936188,98.495956 
	C494.959198,111.606316 503.239075,120.017853 515.968445,119.960960 
	C528.694641,119.904091 536.988464,111.452103 537.015747,98.394531 
	C537.054688,79.729675 537.026001,61.064667 537.026123,42.399723 
	C537.026123,40.772228 537.026062,39.144733 537.026062,37.259438 
	C544.361328,37.259438 551.290588,37.259438 558.926697,37.259438 
	C558.926697,38.995880 558.926697,40.753590 558.926697,42.511303 
	C558.926514,60.342991 558.427368,78.191788 559.038269,96.002510 
	C560.057678,125.723259 537.168762,142.218582 508.748291,138.789886 
	C499.567230,137.682266 491.445587,134.205063 484.330750,127.680641 
z"/>
<path fill="#52428C" opacity="1.000000" stroke="none" 
	d="
M759.566040,121.370239 
	C761.606140,126.668198 763.473083,131.618637 765.682739,137.477814 
	C758.003052,137.477814 750.944092,137.514893 743.887268,137.411667 
	C743.283142,137.402847 742.559875,136.552597 742.132141,135.928543 
	C741.674927,135.261520 741.511963,134.395508 741.204285,133.622833 
	C739.251404,128.718613 738.592712,121.920036 734.975525,119.442657 
	C731.306824,116.930023 724.715149,118.637398 719.402771,118.585411 
	C713.572205,118.528351 707.727783,118.808304 701.914062,118.490547 
	C698.015503,118.277458 695.740662,119.182808 694.826843,123.356339 
	C694.051575,126.897072 692.119019,130.177231 691.262634,133.709457 
	C690.456299,137.035599 688.660034,137.743042 685.563232,137.633636 
	C679.586182,137.422531 673.596313,137.572037 667.045654,137.572037 
	C667.591919,135.821777 667.937500,134.446793 668.443298,133.133514 
	C680.270630,102.422554 692.183289,71.744072 703.858337,40.975403 
	C705.109924,37.676949 706.697388,36.706093 709.991577,36.926861 
	C714.138000,37.204750 718.333496,37.219692 722.477112,36.921146 
	C725.792236,36.682293 727.448547,37.698727 728.677856,40.945019 
	C738.801880,67.680878 749.127991,94.340187 759.566040,121.370239 
M708.636292,85.079224 
	C706.937988,89.822060 705.239746,94.564896 703.441284,99.587433 
	C712.401245,99.587433 720.447083,99.587433 728.973022,99.587433 
	C724.778198,87.750168 720.720642,76.300438 716.284790,63.783070 
	C713.581238,71.307297 711.239868,77.823715 708.636292,85.079224 
z"/>
<path fill="#51418B" opacity="1.000000" stroke="none" 
	d="
M640.947754,137.074219 
	C618.149109,143.364655 594.444336,135.083237 582.345947,116.837715 
	C569.897034,98.063652 571.082214,71.598656 585.171265,53.746483 
	C603.397583,30.652023 641.763733,28.957167 662.368774,50.308163 
	C657.591553,54.763187 652.808899,59.223267 647.818237,63.877350 
	C643.179138,59.499790 637.014465,55.787746 629.427368,55.038769 
	C612.396729,53.357559 599.712219,63.504353 596.516357,81.341492 
	C593.201355,99.843704 604.076660,116.480782 621.519958,119.591934 
	C631.033752,121.288811 640.151855,117.835983 649.632141,108.724304 
	C654.539185,112.682449 659.498779,116.683006 664.811951,120.968781 
	C658.228760,128.778671 650.528564,133.942200 640.947754,137.074219 
z"/>
<path fill="#51418B" opacity="1.000000" stroke="none" 
	d="
M797.025269,78.000084 
	C797.025269,70.531578 797.025269,63.563042 797.025269,56.113663 
	C787.475891,56.113663 778.230652,56.113663 768.715332,56.113663 
	C768.715332,49.552567 768.715332,43.475407 768.715332,37.201515 
	C794.899475,37.201515 820.819153,37.201515 847.035583,37.201515 
	C847.035583,43.323559 847.035583,49.249485 847.035583,55.755013 
	C837.950806,55.755013 828.742676,55.755013 819.030762,55.755013 
	C819.030762,83.208534 819.030762,110.094330 819.030762,137.270721 
	C811.595215,137.270721 804.667542,137.270721 797.025330,137.270721 
	C797.025330,117.641441 797.025330,98.070747 797.025269,78.000084 
z"/>
<path fill="#54458D" opacity="1.000000" stroke="none" 
	d="
M190.049423,50.951920 
	C204.551849,78.424400 204.173416,105.412163 189.353607,132.512268 
	C187.647308,132.230515 186.031937,132.025345 184.446014,131.683548 
	C183.034271,131.379288 181.655121,130.923721 179.904068,130.435181 
	C190.913452,111.911568 194.325806,92.386688 188.686844,71.723221 
	C184.625839,56.842014 176.535202,44.342995 164.285553,34.880718 
	C136.916977,13.739771 101.809082,13.902360 74.215691,35.557301 
	C59.874508,46.812073 51.562023,61.919334 48.760929,79.961197 
	C45.966866,97.957787 49.658703,114.676048 59.487869,130.456848 
	C56.179970,131.259125 53.358917,131.943329 50.301876,132.684769 
	C43.821056,123.375366 40.621868,112.851349 39.290878,101.970963 
	C36.570518,79.732986 41.637756,59.297653 55.536446,41.398628 
	C89.639442,-2.519923 157.149231,0.274570 187.458710,46.839996 
	C188.275970,48.095581 189.060471,49.372505 190.049423,50.951920 
z"/>
<path fill="#53438D" opacity="1.000000" stroke="none" 
	d="
M124.172226,178.000031 
	C124.172256,191.643021 124.172256,204.786026 124.172256,218.255493 
	C121.117836,218.255493 118.374733,218.255493 115.195763,218.255493 
	C115.195763,196.288315 115.195763,174.384567 115.195763,152.271210 
	C98.296997,146.617142 81.362289,145.093002 64.294060,148.558670 
	C55.072639,150.431061 46.226612,154.091858 37.121422,156.622772 
	C32.630188,157.871155 30.712429,160.254303 31.557123,164.857529 
	C31.701057,165.641891 31.498877,166.489792 31.448702,167.461121 
	C28.473639,168.215164 25.622801,168.937744 22.159014,169.815659 
	C22.159014,164.693588 21.962080,159.784836 22.299772,154.913147 
	C22.382488,153.719849 23.997917,152.195877 25.273117,151.586227 
	C54.372753,137.673920 84.433342,133.196716 115.913902,142.433319 
	C118.155792,143.091095 120.924698,143.088425 123.168373,142.433304 
	C154.638412,133.244385 184.724289,137.593033 213.803619,151.567795 
	C215.281036,152.277802 216.693146,154.577362 216.864655,156.265915 
	C217.298828,160.540771 217.008728,164.889206 217.008728,169.654694 
	C213.891251,168.949677 211.097412,168.317841 208.390686,167.705704 
	C208.188141,167.249100 207.898926,166.922928 207.947556,166.659012 
	C209.105438,160.375336 205.749130,157.985291 200.264786,155.812958 
	C175.416458,145.970673 150.375488,143.592041 124.172188,152.226715 
	C124.172188,160.622055 124.172188,169.061035 124.172226,178.000031 
z"/>
<path fill="#54448D" opacity="1.000000" stroke="none" 
	d="
M34.747368,218.463806 
	C19.157427,219.086533 8.990965,203.079193 14.696042,189.795364 
	C18.480692,180.983109 28.378216,175.312653 37.708744,177.176651 
	C47.347900,179.102310 54.841908,188.137939 54.795593,197.778519 
	C54.749298,207.415131 47.440784,216.332565 38.121384,218.091339 
	C37.145424,218.275513 36.142525,218.316940 34.747368,218.463806 
M26.550617,188.967072 
	C25.735464,189.999557 24.801765,190.960266 24.125559,192.076904 
	C21.096426,197.078873 22.445938,203.512054 27.205414,207.101685 
	C31.327391,210.210526 37.996258,209.679108 41.800869,205.938644 
	C45.854191,201.953659 46.392246,195.493622 43.050900,190.930420 
	C39.393105,185.935059 33.343056,185.006989 26.550617,188.967072 
z"/>
<path fill="#53438D" opacity="1.000000" stroke="none" 
	d="
M221.197815,211.126892 
	C213.298096,218.979630 203.239624,220.708450 195.160355,215.845718 
	C186.819977,210.825806 182.803101,201.265182 185.348145,192.395447 
	C187.846069,183.689911 193.767883,178.601257 202.524368,177.116684 
	C210.633743,175.741821 219.499008,180.153625 223.226471,187.111160 
	C227.636414,195.342590 227.222229,203.326492 221.197815,211.126892 
M208.745316,208.763596 
	C209.900497,208.138855 211.181335,207.670547 212.188553,206.861557 
	C215.996521,203.803009 217.622208,199.920151 216.330856,195.026932 
	C215.062866,190.222305 212.101532,187.264771 207.114975,186.560745 
	C202.238647,185.872284 198.382370,187.416473 195.760696,191.780869 
	C193.401260,195.708694 193.353256,199.525085 195.646576,203.513824 
	C198.452362,208.393951 202.717163,209.668579 208.745316,208.763596 
z"/>
<path fill="#686DBB" opacity="1.000000" stroke="none" 
	d="
M553.026245,174.973633 
	C554.502380,172.432312 555.678711,168.665482 557.322998,168.448746 
	C561.304565,167.923935 560.278320,172.325180 561.223267,174.666641 
	C562.509460,177.853958 563.341370,181.224625 564.751587,185.746307 
	C566.262329,180.346191 567.716797,176.130753 568.568298,171.796844 
	C569.266602,168.242447 570.980225,167.408585 574.739136,168.681961 
	C572.832581,175.956375 571.035278,183.307678 568.858826,190.544968 
	C568.558655,191.543304 566.367737,192.540955 565.073853,192.513550 
	C563.767761,192.485901 561.789734,191.477692 561.326843,190.382904 
	C559.846313,186.881378 558.931885,183.140488 557.360962,178.081635 
	C555.745483,182.880981 554.766235,186.585495 553.198364,190.021378 
	C552.641663,191.241318 550.703247,192.377975 549.303467,192.500595 
	C548.085510,192.607300 545.888306,191.485931 545.583801,190.469818 
	C543.445618,183.334015 541.685730,176.084808 539.788757,168.809433 
	C543.226013,167.392090 545.137878,168.024490 545.924805,171.538940 
	C546.901306,175.899582 548.140076,180.201492 549.600037,185.814651 
	C550.957092,181.567032 551.948181,178.464890 553.026245,174.973633 
z"/>
<path fill="#686DBB" opacity="1.000000" stroke="none" 
	d="
M613.519409,182.523438 
	C614.206482,182.442978 615.067261,182.076523 615.075806,181.690979 
	C615.171997,177.397797 615.136475,173.101669 615.136475,168.773514 
	C618.566467,167.567856 620.569458,167.715942 620.492737,171.819305 
	C620.366211,178.590439 620.458435,185.365662 620.458435,191.946075 
	C616.312500,193.551620 613.994019,192.409225 612.189697,189.057953 
	C610.007629,185.005066 607.408203,181.176895 604.105286,177.404373 
	C604.105286,182.219482 604.105286,187.034592 604.105286,191.862274 
	C600.101135,193.439804 598.390930,192.717285 598.494202,188.564606 
	C598.658813,181.946152 598.538208,175.320633 598.538208,168.833282 
	C602.567139,167.220810 604.917725,168.326904 606.733337,171.646027 
	C608.722473,175.282333 611.093018,178.710007 613.519409,182.523438 
z"/>
<path fill="#54448D" opacity="1.000000" stroke="none" 
	d="
M97.124390,95.809624 
	C104.615402,102.391701 99.713516,112.939774 92.809235,113.936890 
	C88.059128,114.622902 83.382957,112.685280 81.500664,108.650627 
	C79.506012,104.375137 79.910477,100.195808 83.185364,96.680382 
	C86.584274,93.031837 91.485466,92.755142 97.124390,95.809624 
z"/>
<path fill="#54448D" opacity="1.000000" stroke="none" 
	d="
M148.954895,93.677299 
	C156.262878,94.892342 160.131912,100.108879 158.650864,106.248878 
	C157.247940,112.064957 151.397873,115.434525 145.576599,113.779472 
	C140.097290,112.221642 136.957642,105.889503 139.008774,100.230560 
	C140.596573,95.849915 144.016083,93.884567 148.954895,93.677299 
z"/>
<path fill="#6B70BC" opacity="1.000000" stroke="none" 
	d="
M954.411682,172.389191 
	C954.411865,174.315674 954.411865,175.795044 954.411865,177.618652 
	C957.836182,177.618652 960.881897,177.618652 964.173340,177.618652 
	C964.334045,174.484573 964.484436,171.551971 964.647278,168.375885 
	C966.356506,168.375885 967.774963,168.375885 969.508911,168.375885 
	C969.508911,176.284943 969.508911,184.035263 969.508911,191.798828 
	C965.597473,192.976135 965.597473,192.976135 963.777832,183.022217 
	C960.945190,183.022217 958.049316,183.022217 955.815613,183.022217 
	C952.018005,185.472351 958.336548,193.294525 949.435303,192.533768 
	C949.435303,184.428360 949.435303,176.551971 949.435303,168.599899 
	C952.739380,167.483246 954.768494,167.952454 954.411682,172.389191 
z"/>
<path fill="#666BBA" opacity="1.000000" stroke="none" 
	d="
M335.575989,169.203796 
	C344.984253,166.005905 352.677063,169.928192 353.895935,178.193390 
	C354.829041,184.520615 351.557922,190.216370 345.915131,192.089813 
	C339.685608,194.158066 333.219727,191.748703 330.484711,186.339996 
	C327.335114,180.111465 329.080719,173.850311 335.575989,169.203796 
M334.610657,182.703537 
	C336.945007,187.661423 340.584045,189.298874 344.777405,187.278351 
	C348.748810,185.364777 350.137238,180.386978 347.881561,176.254166 
	C345.956848,172.727753 342.739563,172.152023 339.369568,173.062363 
	C334.935669,174.260117 333.778229,177.719849 334.610657,182.703537 
z"/>
<path fill="#666BBA" opacity="1.000000" stroke="none" 
	d="
M506.590607,192.722656 
	C496.937897,192.409698 492.212830,187.709106 492.658997,179.311829 
	C493.043701,172.071350 498.590973,167.398056 506.197357,167.906525 
	C512.441040,168.323868 516.748230,172.662308 517.391296,179.181732 
	C518.066589,186.026749 514.513367,190.632126 506.590607,192.722656 
M511.041107,175.720322 
	C510.338959,175.028198 509.608215,173.718567 508.939545,173.749542 
	C505.845978,173.892822 502.035522,173.416351 499.860596,175.025421 
	C496.661774,177.391968 496.660095,182.037933 499.261139,184.856415 
	C500.985229,186.724655 504.775238,187.742050 507.441833,187.432068 
	C511.237946,186.990753 512.440613,183.485443 512.205078,179.813278 
	C512.132263,178.677780 511.719330,177.564102 511.041107,175.720322 
z"/>
<path fill="#6B70BC" opacity="1.000000" stroke="none" 
	d="
M676.658081,192.620804 
	C675.315552,192.573990 674.350891,192.482056 672.828308,192.336929 
	C675.630920,184.721970 678.198853,177.396530 681.113220,170.211655 
	C681.538086,169.164352 683.627625,168.233383 684.928589,168.257065 
	C686.237305,168.280899 688.262695,169.263962 688.699158,170.342606 
	C691.556274,177.403305 694.067627,184.603958 697.308655,193.440231 
	C694.427002,192.266815 692.148071,192.059769 691.216370,190.831100 
	C687.711670,186.209457 681.185547,186.278580 678.433472,191.249695 
	C678.136841,191.785385 677.509705,192.138077 676.658081,192.620804 
M682.674805,179.393600 
	C682.432495,180.463730 682.190247,181.533859 681.922668,182.715668 
	C684.107666,182.715668 685.949219,182.715668 688.266724,182.715668 
	C687.147888,179.682144 686.227661,177.187042 684.911194,173.617584 
	C683.902893,176.159088 683.416382,177.385376 682.674805,179.393600 
z"/>
<path fill="#6B70BC" opacity="1.000000" stroke="none" 
	d="
M856.601685,188.404297 
	C858.822876,182.453445 860.713318,176.767410 863.068848,171.281067 
	C863.664368,169.893997 865.731567,168.349960 867.146606,168.326340 
	C868.549255,168.302933 870.714783,169.802917 871.278625,171.160858 
	C874.121582,178.007767 876.550659,185.026520 879.125000,191.984970 
	C878.825439,192.357239 878.525879,192.729507 878.226379,193.101761 
	C876.664612,192.394669 874.544678,192.107819 873.640015,190.906067 
	C870.145264,186.263840 864.556458,186.334885 860.782043,191.087555 
	C859.878357,192.225464 857.859375,192.477600 855.299927,193.598419 
	C855.884460,191.116440 856.163940,189.929810 856.601685,188.404297 
M868.374451,183.102814 
	C872.452209,179.546036 867.386597,177.526901 866.668396,174.624405 
	C865.768372,177.215698 864.868347,179.807007 863.849426,182.740646 
	C865.353699,182.897568 866.445251,183.011444 868.374451,183.102814 
z"/>
<path fill="#666BBA" opacity="1.000000" stroke="none" 
	d="
M437.402802,192.623718 
	C434.358459,189.143509 431.682617,185.690231 428.334656,181.369598 
	C428.334656,185.437363 428.334656,188.723587 428.334656,191.876144 
	C424.390503,193.337891 422.758270,192.711075 422.874756,188.759796 
	C423.070465,182.121964 422.928375,175.474136 422.928375,168.120117 
	C425.692871,168.120117 428.123047,168.089371 430.552124,168.127335 
	C434.207458,168.184448 437.588623,168.774628 439.041473,172.833725 
	C440.327759,176.427597 439.452026,178.515289 435.003693,182.085541 
	C437.019196,185.235703 439.052460,188.413574 441.395447,192.075592 
	C439.874695,192.316910 438.822968,192.483780 437.402802,192.623718 
M428.166748,173.013947 
	C428.166748,174.608795 428.166748,176.203659 428.166748,178.067032 
	C429.485931,178.067032 430.652802,178.413071 431.361603,177.990585 
	C432.603546,177.250244 433.564514,176.038513 434.643188,175.024246 
	C433.630035,174.104691 432.734192,172.961578 431.561462,172.346024 
	C430.809143,171.951111 429.648743,172.333603 428.166748,173.013947 
z"/>
<path fill="#686CBA" opacity="1.000000" stroke="none" 
	d="
M1035.034912,186.814087 
	C1035.034912,180.528381 1035.034912,174.716843 1035.034912,168.152939 
	C1038.237915,168.152939 1041.160889,168.056534 1044.074829,168.177368 
	C1047.706787,168.327957 1050.512207,169.785431 1051.543457,173.595917 
	C1052.613892,177.551056 1050.664185,179.931183 1046.896851,181.738403 
	C1049.087646,185.096222 1051.215698,188.357788 1053.732056,192.214554 
	C1044.521484,194.084351 1045.803711,184.610611 1040.483032,181.992249 
	C1040.483032,185.442200 1040.483032,188.709656 1040.483032,192.309418 
	C1038.360596,192.309418 1036.975586,192.309418 1035.262573,192.309418 
	C1035.181641,190.524628 1035.108276,188.906448 1035.034912,186.814087 
M1044.868164,177.882019 
	C1045.404175,176.551086 1045.940186,175.220154 1046.476074,173.889206 
	C1044.640747,173.170502 1042.805420,172.451797 1040.481812,171.541916 
	C1040.113403,175.427811 1038.751709,178.800522 1044.868164,177.882019 
z"/>
<path fill="#686CBA" opacity="1.000000" stroke="none" 
	d="
M901.168945,181.654907 
	C901.357605,173.978256 904.444641,169.580826 910.328491,168.154938 
	C916.782593,166.590866 921.703125,168.850067 924.872498,175.059402 
	C922.746643,176.288132 921.173279,177.702759 918.687561,174.859787 
	C915.971313,171.753204 911.021973,172.056717 908.405396,174.725571 
	C905.682556,177.502777 905.583740,182.793396 908.200439,185.704788 
	C910.812683,188.611176 915.147339,188.674484 918.596985,186.312454 
	C920.180969,185.227921 922.311096,184.940964 924.388794,184.860809 
	C922.302856,191.022827 918.675598,193.246231 913.020630,192.838898 
	C906.518494,192.370560 903.163696,189.311920 901.168945,181.654907 
z"/>
<path fill="#6E73BD" opacity="1.000000" stroke="none" 
	d="
M821.472290,192.699936 
	C820.149109,191.936264 818.528870,191.198929 818.507874,190.418549 
	C818.312561,183.160339 818.392334,175.894714 818.392334,168.095505 
	C822.691101,168.095505 826.470459,167.958450 830.226257,168.194901 
	C831.129639,168.251785 831.955017,169.547714 832.816223,170.273819 
	C831.865479,171.084259 831.019958,172.351547 829.939819,172.600357 
	C828.231201,172.993942 826.365295,172.705154 824.221680,172.705154 
	C824.070557,174.479767 823.951233,175.880280 823.800049,177.655487 
	C826.390015,177.828827 828.656616,177.980515 831.490417,178.170181 
	C832.874878,185.072723 826.656189,181.482391 824.127625,183.491104 
	C824.056580,184.517944 823.959595,185.919907 823.832336,187.759262 
	C826.774536,187.759262 829.371460,187.759262 832.038269,187.759262 
	C833.421631,190.999802 833.253418,192.858505 829.388855,192.723038 
	C826.901123,192.635834 824.407898,192.706421 821.472290,192.699936 
z"/>
<path fill="#656AB9" opacity="1.000000" stroke="none" 
	d="
M383.140869,183.388504 
	C383.627167,187.017990 385.591003,189.111374 388.560303,187.806000 
	C390.218567,187.076996 391.656952,184.236786 391.886719,182.200378 
	C392.384125,177.792267 392.039886,173.289169 392.039886,168.438065 
	C393.780365,168.359497 395.152527,168.297546 396.373535,168.242416 
	C396.700195,168.886261 396.969696,169.171799 396.972961,169.460358 
	C397.029297,174.445557 397.202087,179.435867 397.043213,184.415314 
	C396.870667,189.825653 393.673309,192.669113 387.999115,192.871338 
	C382.215393,193.077469 378.467865,190.119278 378.121948,184.674469 
	C377.858856,180.533035 378.032013,176.363037 378.039490,172.205811 
	C378.041534,171.067886 378.145966,169.930176 378.219513,168.473587 
	C379.802643,168.473587 381.175171,168.473587 383.116730,168.473587 
	C383.116730,173.389313 383.116730,178.168671 383.140869,183.388504 
z"/>
<path fill="#6A6FBC" opacity="1.000000" stroke="none" 
	d="
M1009.994202,169.978867 
	C1009.024597,171.170334 1008.124573,172.349274 1007.022583,172.585388 
	C1005.303101,172.953812 1003.446716,172.682938 1001.338806,172.682938 
	C1001.216919,174.480988 1001.121155,175.893936 1000.998352,177.705841 
	C1003.688538,177.869949 1006.097961,178.016937 1008.745239,178.178421 
	C1008.745239,179.626816 1008.745239,180.866104 1008.745239,182.431320 
	C1006.335571,182.583923 1004.051819,182.728546 1001.402100,182.896347 
	C1001.402100,184.468658 1001.402100,185.990799 1001.402100,187.896286 
	C1004.134583,187.896286 1006.737915,187.896286 1009.268860,187.896286 
	C1010.282593,193.244293 1008.254639,193.874802 996.242310,192.176331 
	C996.242310,184.376373 996.242310,176.522858 996.242310,167.504242 
	C1001.023254,168.214355 1005.498230,168.879028 1009.994202,169.978867 
z"/>
<path fill="#6A6FBC" opacity="1.000000" stroke="none" 
	d="
M294.202240,183.379257 
	C291.907532,178.255264 289.614197,173.570480 287.221619,168.683014 
	C293.687500,165.978958 293.438721,173.179108 296.881958,175.260178 
	C300.297394,173.480072 300.068542,166.096573 307.092346,168.648010 
	C306.247925,170.068100 305.589935,171.514389 304.632935,172.724121 
	C300.895538,177.448456 298.723419,182.572540 299.597504,188.775894 
	C300.156158,192.740463 297.923035,193.221191 294.203613,192.090393 
	C294.203613,189.364471 294.203613,186.591476 294.202240,183.379257 
z"/>
<path fill="#6A6EBB" opacity="1.000000" stroke="none" 
	d="
M783.970276,189.612152 
	C783.968567,183.865921 783.968567,178.576050 783.968567,173.454483 
	C781.785583,171.865891 776.499695,174.294708 778.664246,168.112152 
	C783.097595,168.112152 787.716675,167.916824 792.296387,168.255188 
	C793.384949,168.335617 794.341553,170.202713 796.207642,172.120224 
	C792.824097,172.553299 791.209656,172.759949 789.209839,173.015915 
	C789.209839,179.294250 789.209839,185.551727 789.209839,192.049576 
	C786.776978,192.406448 784.297241,194.240814 783.970276,189.612152 
z"/>
<path fill="#6E73BD" opacity="1.000000" stroke="none" 
	d="
M720.309570,179.024200 
	C720.309814,175.246002 720.309814,171.959076 720.309814,168.390625 
	C722.247070,168.390625 723.665283,168.390625 725.427124,168.390625 
	C725.427124,176.206604 725.427124,183.950851 725.427124,192.307938 
	C724.084778,192.431854 722.561951,192.572433 720.309326,192.780380 
	C720.309326,188.035004 720.309326,183.775253 720.309570,179.024200 
z"/>
<path fill="#FDFDFE" opacity="1.000000" stroke="none" 
	d="
M933.542908,102.361496 
	C927.218506,115.132965 914.522339,121.936920 901.943604,119.531708 
	C887.574280,116.784111 878.093018,105.740089 877.080261,90.477180 
	C876.258484,78.093002 879.596252,67.209564 890.102600,59.874451 
	C908.101196,47.308586 932.647827,58.544704 936.025085,80.513641 
	C937.166809,87.940575 936.473877,95.066719 933.542908,102.361496 
z"/>
<path fill="#FEFEFE" opacity="1.000000" stroke="none" 
	d="
M996.877686,81.833649 
	C996.876160,73.060104 996.876160,64.772697 996.876160,56.153694 
	C1004.775391,56.153694 1012.258484,55.725845 1019.669373,56.274460 
	C1027.027222,56.819153 1032.248291,63.338406 1032.211914,70.680725 
	C1032.176147,77.941284 1026.784912,84.232819 1019.343445,84.779907 
	C1012.711365,85.267494 1006.017761,85.046280 999.358276,84.870522 
	C998.510071,84.848145 997.704468,83.209610 996.877686,81.833649 
z"/>
<path fill="#FEFDFE" opacity="1.000000" stroke="none" 
	d="
M416.828003,117.113266 
	C408.556824,117.980614 400.669739,118.738991 392.304077,119.543388 
	C392.304077,97.894592 392.304077,77.220215 392.304077,56.034531 
	C402.770569,56.445072 413.582031,53.991688 423.112274,60.723454 
	C433.343536,67.950401 436.002441,78.523941 435.344421,90.152069 
	C434.644196,102.525528 429.280731,112.123680 416.828003,117.113266 
z"/>
<path fill="#F9F8FB" opacity="1.000000" stroke="none" 
	d="
M708.767334,84.709679 
	C711.239868,77.823715 713.581238,71.307297 716.284790,63.783070 
	C720.720642,76.300438 724.778198,87.750168 728.973022,99.587433 
	C720.447083,99.587433 712.401245,99.587433 703.441284,99.587433 
	C705.239746,94.564896 706.937988,89.822060 708.767334,84.709679 
z"/>
<path fill="#FBFBFC" opacity="1.000000" stroke="none" 
	d="
M26.847424,188.728729 
	C33.343056,185.006989 39.393105,185.935059 43.050900,190.930420 
	C46.392246,195.493622 45.854191,201.953659 41.800869,205.938644 
	C37.996258,209.679108 31.327391,210.210526 27.205414,207.101685 
	C22.445938,203.512054 21.096426,197.078873 24.125559,192.076904 
	C24.801765,190.960266 25.735464,189.999557 26.847424,188.728729 
z"/>
<path fill="#FBFBFC" opacity="1.000000" stroke="none" 
	d="
M208.341888,208.823914 
	C202.717163,209.668579 198.452362,208.393951 195.646576,203.513824 
	C193.353256,199.525085 193.401260,195.708694 195.760696,191.780869 
	C198.382370,187.416473 202.238647,185.872284 207.114975,186.560745 
	C212.101532,187.264771 215.062866,190.222305 216.330856,195.026932 
	C217.622208,199.920151 215.996521,203.803009 212.188553,206.861557 
	C211.181335,207.670547 209.900497,208.138855 208.341888,208.823914 
z"/>
<path fill="#FBFBFD" opacity="1.000000" stroke="none" 
	d="
M334.485596,182.331085 
	C333.778229,177.719849 334.935669,174.260117 339.369568,173.062363 
	C342.739563,172.152023 345.956848,172.727753 347.881561,176.254166 
	C350.137238,180.386978 348.748810,185.364777 344.777405,187.278351 
	C340.584045,189.298874 336.945007,187.661423 334.485596,182.331085 
z"/>
<path fill="#FBFBFD" opacity="1.000000" stroke="none" 
	d="
M511.251587,176.080368 
	C511.719330,177.564102 512.132263,178.677780 512.205078,179.813278 
	C512.440613,183.485443 511.237946,186.990753 507.441833,187.432068 
	C504.775238,187.742050 500.985229,186.724655 499.261139,184.856415 
	C496.660095,182.037933 496.661774,177.391968 499.860596,175.025421 
	C502.035522,173.416351 505.845978,173.892822 508.939545,173.749542 
	C509.608215,173.718567 510.338959,175.028198 511.251587,176.080368 
z"/>
<path fill="#F4F5FA" opacity="1.000000" stroke="none" 
	d="
M682.802368,179.002625 
	C683.416382,177.385376 683.902893,176.159088 684.911194,173.617584 
	C686.227661,177.187042 687.147888,179.682144 688.266724,182.715668 
	C685.949219,182.715668 684.107666,182.715668 681.922668,182.715668 
	C682.190247,181.533859 682.432495,180.463730 682.802368,179.002625 
z"/>
<path fill="#F4F5FA" opacity="1.000000" stroke="none" 
	d="
M867.955627,183.114075 
	C866.445251,183.011444 865.353699,182.897568 863.849426,182.740646 
	C864.868347,179.807007 865.768372,177.215698 866.668396,174.624405 
	C867.386597,177.526901 872.452209,179.546036 867.955627,183.114075 
z"/>
<path fill="#F4F5FA" opacity="1.000000" stroke="none" 
	d="
M428.419006,172.690781 
	C429.648743,172.333603 430.809143,171.951111 431.561462,172.346024 
	C432.734192,172.961578 433.630035,174.104691 434.643188,175.024246 
	C433.564514,176.038513 432.603546,177.250244 431.361603,177.990585 
	C430.652802,178.413071 429.485931,178.067032 428.166748,178.067032 
	C428.166748,176.203659 428.166748,174.608795 428.419006,172.690781 
z"/>
<path fill="#F0F0F8" opacity="1.000000" stroke="none" 
	d="
M1044.462158,177.964233 
	C1038.751709,178.800522 1040.113403,175.427811 1040.481812,171.541916 
	C1042.805420,172.451797 1044.640747,173.170502 1046.476074,173.889221 
	C1045.940186,175.220154 1045.404175,176.551086 1044.462158,177.964233 
z"/>
</svg>