<svg version="1.1" id="Layer_1" xmlns="http://www.w3.org/2000/svg" xmlns:xlink="http://www.w3.org/1999/xlink" x="0px" y="0px" width="100%" viewBox="0 0 512 512" enable-background="new 0 0 512 512" xml:space="preserve">

<path fill="#995CEA" opacity="1.000000" stroke="none" d="
M177.879639,303.084045 
	C149.639404,296.749603 131.173203,279.598419 123.297890,251.928284 
	C120.967430,243.740158 121.673874,234.687683 120.974213,225.096436 
	C120.945404,203.070877 120.931046,181.980209 120.916687,160.889526 
	C121.171143,150.411728 120.727074,140.032227 124.467049,129.750870 
	C132.602066,107.387291 147.398132,91.942429 170.124802,85.242172 
	C184.089020,81.125244 198.608444,78.831833 212.940201,76.035507 
	C233.550735,72.014107 254.502396,72.123238 275.255005,73.298233 
	C292.460297,74.272377 309.616974,77.328766 326.601257,80.501060 
	C336.059479,82.267662 345.725433,84.973343 354.242157,89.322784 
	C374.954865,99.900620 388.068420,116.926193 391.898041,140.225800 
	C392.960999,146.693085 392.677185,153.381729 393.025757,160.903580 
	C393.054535,182.929108 393.068909,204.019852 393.083252,225.110611 
	C392.658051,235.045029 393.653168,244.996597 390.131744,254.772079 
	C385.520416,267.572968 378.869720,278.597931 368.298431,287.436584 
	C358.994232,295.215820 348.689362,300.464478 336.125916,303.099731 
	C317.210968,306.127380 299.084808,309.065796 280.524902,312.016785 
	C264.407898,312.020966 248.724640,312.012604 232.596512,312.002502 
	C214.060974,309.028534 195.970306,306.056305 177.879639,303.084045 
M200.739685,262.909424 
	C206.008621,263.605347 211.273300,264.862854 216.547195,264.902740 
	C243.538361,265.106659 270.532654,265.125427 297.524414,264.964325 
	C332.580261,264.755127 360.963715,236.056290 360.996277,201.042404 
	C361.028870,166.049728 332.606232,137.233414 297.616791,137.033371 
	C270.458344,136.878098 243.297714,136.895966 216.139206,137.044815 
	C200.345581,137.131363 186.347717,142.557816 174.709839,153.174896 
	C156.663071,169.638702 149.360962,190.266586 154.513870,214.154739 
	C159.877014,239.017563 175.697159,255.043243 200.739685,262.909424 
z" data-index="1" style="opacity: 1;"></path>
<path fill="#7834BF" opacity="1.000000" stroke="none" d="
M177.794739,303.406494 
	C195.970306,306.056305 214.060974,309.028534 232.588318,312.470581 
	C233.017975,318.263550 232.935562,323.587982 233.018829,328.909760 
	C233.226471,342.179688 243.772659,352.857819 256.716156,352.988983 
	C269.916870,353.122742 280.741455,342.453125 280.975739,328.971558 
	C281.073975,323.317566 280.970428,317.660095 280.958618,312.004211 
	C299.084808,309.065796 317.210968,306.127380 335.728210,303.138916 
	C340.745178,308.914764 346.297607,314.239777 349.780945,320.683350 
	C355.078613,330.482971 353.792023,341.163696 351.057465,351.719666 
	C346.151733,370.657104 341.529633,389.667969 335.980652,408.829773 
	C282.740723,409.016785 230.309097,409.022156 177.877487,409.027557 
	C175.338730,399.851624 172.662827,390.710876 170.296188,381.490753 
	C167.384171,370.145874 164.513519,358.782043 162.014618,347.341309 
	C158.143585,329.618683 162.869446,314.807983 177.794739,303.406494 
z" data-index="2" style="opacity: 1;"></path>
<path fill="#995CEA" opacity="1.000000" stroke="none" d="
M177.930359,409.428223 
	C230.309097,409.022156 282.740723,409.016785 335.648926,409.019653 
	C333.472198,424.124817 324.554382,433.947144 310.317780,438.903046 
	C306.435730,440.254425 302.114166,440.343262 297.077911,441.026001 
	C269.737549,441.054810 243.313538,441.069122 216.889542,441.083435 
	C206.340790,441.825897 197.338181,437.604340 189.798874,431.015259 
	C183.579025,425.579285 179.142395,418.439087 177.930359,409.428223 
z" data-index="3" style="opacity: 1;"></path>
<path fill="#7834BF" opacity="1.000000" stroke="none" d="
M216.933945,441.543640 
	C243.313538,441.069122 269.737549,441.054810 296.636108,441.061890 
	C296.919800,446.710999 297.604706,452.538605 296.374023,457.928894 
	C292.665344,474.172424 282.475433,484.838989 266.070496,488.354889 
	C239.847229,493.975098 216.857727,475.174286 216.996506,450.988312 
	C217.013687,447.993622 216.985504,444.998657 216.933945,441.543640 
z" data-index="4" style="opacity: 1;"></path>
<path fill="#7834BF" opacity="1.000000" stroke="none" d="
M120.483704,160.933838 
	C120.931046,181.980209 120.945404,203.070877 120.938309,224.636139 
	C115.095451,225.073853 109.232719,224.578690 103.461617,225.099319 
	C92.762184,226.064499 79.889832,213.726288 80.914444,202.452713 
	C81.409325,197.007553 81.244041,191.467056 80.949501,185.992767 
	C80.319305,174.279999 85.899261,166.694641 96.977005,161.979553 
	C102.864845,161.616562 107.968338,161.292068 113.071823,160.967590 
	C115.398117,160.971100 117.724419,160.974609 120.483704,160.933838 
z" data-index="5"></path>
<path fill="#7834BF" opacity="1.000000" stroke="none" d="
M393.544312,225.066116 
	C393.068909,204.019852 393.054535,182.929108 393.061646,161.363754 
	C395.407440,160.923996 397.731812,160.958832 400.959412,160.989624 
	C406.937897,161.313400 412.013123,161.641235 417.088348,161.969055 
	C427.099670,165.427841 432.994537,173.485077 432.999451,183.723343 
	C433.002533,190.194916 433.013336,196.666504 432.997070,203.138046 
	C432.967499,214.885941 422.777344,224.974854 410.930847,224.999283 
	C405.289001,225.010910 399.647186,225.014435 393.544312,225.066116 
z" data-index="6" style="opacity: 1;"></path>
<path fill="#F3388F" opacity="1.000000" stroke="none" d="
M96.969177,72.128036 
	C87.472961,68.907280 79.597496,60.257954 80.905937,45.421097 
	C81.646111,37.028065 88.534683,27.940825 98.032120,25.566549 
	C114.826363,21.368137 129.166824,32.579144 129.154373,48.186443 
	C129.145050,59.873119 123.984116,67.361145 112.976227,72.033432 
	C107.121735,72.082977 102.045456,72.105507 96.969177,72.128036 
z" data-index="7"></path>
<path fill="#F3388F" opacity="1.000000" stroke="none" d="
M400.969177,72.128029 
	C391.472931,68.907242 383.597687,60.258018 384.905914,45.421097 
	C385.646210,37.025017 392.531281,27.941732 402.032135,25.566559 
	C418.826447,21.368057 433.166779,32.579094 433.154388,48.186459 
	C433.145111,59.873089 427.984192,67.361206 416.976196,72.033440 
	C411.121735,72.082977 406.045441,72.105499 400.969177,72.128029 
z" data-index="8" style="opacity: 1;"></path>
<path fill="#995CEA" opacity="1.000000" stroke="none" d="
M96.982483,72.587296 
	C102.045456,72.105507 107.121735,72.082977 112.614655,72.094055 
	C113.024178,101.431038 113.017052,130.734421 113.040878,160.502686 
	C107.968338,161.292068 102.864845,161.616562 97.336365,161.954987 
	C96.939507,132.328110 96.967644,102.687332 96.982483,72.587296 
z" data-index="9"></path>
<path fill="#995CEA" opacity="1.000000" stroke="none" d="
M400.982483,72.587280 
	C406.045441,72.105499 411.121735,72.082977 416.614655,72.094055 
	C417.024750,101.764969 417.018188,131.402267 417.049988,161.504318 
	C412.013123,161.641235 406.937897,161.313400 401.395416,160.976593 
	C400.950714,131.660583 400.973236,102.353554 400.982483,72.587280 
z" data-index="10" style="opacity: 1;"></path>
<path fill="#F1F1F2" opacity="1.000000" stroke="none" d="
M200.345032,262.808044 
	C175.697159,255.043243 159.877014,239.017563 154.513870,214.154739 
	C149.360962,190.266586 156.663071,169.638702 174.709839,153.174896 
	C186.347717,142.557816 200.345581,137.131363 216.139206,137.044815 
	C243.297714,136.895966 270.458344,136.878098 297.616791,137.033371 
	C332.606232,137.233414 361.028870,166.049728 360.996277,201.042404 
	C360.963715,236.056290 332.580261,264.755127 297.524414,264.964325 
	C270.532654,265.125427 243.538361,265.106659 216.547195,264.902740 
	C211.273300,264.862854 206.008621,263.605347 200.345032,262.808044 
M227.165649,216.607315 
	C234.884476,206.414963 234.929535,194.479675 227.283035,185.510818 
	C219.923248,176.878235 207.749863,174.400177 197.907196,179.795471 
	C189.103134,184.621506 184.549332,192.246124 185.113129,202.290207 
	C185.675583,212.309723 190.912155,219.561142 200.279144,223.226486 
	C210.295914,227.146072 219.168839,224.740891 227.165649,216.607315 
M294.960297,179.181351 
	C284.076324,185.341705 279.100403,195.303665 281.564545,206.000168 
	C284.044525,216.765427 293.047180,224.461090 303.755249,224.969223 
	C313.480652,225.430740 322.587250,219.965866 326.720947,211.187531 
	C330.792664,202.540802 329.306366,192.275116 322.947388,185.124161 
	C316.081696,177.403381 306.388214,175.194809 294.960297,179.181351 
z" data-index="11" style="opacity: 1;"></path>
<path fill="#B485FF" opacity="1.000000" stroke="none" d="
M280.524902,312.016785 
	C280.970428,317.660095 281.073975,323.317566 280.975739,328.971558 
	C280.741455,342.453125 269.916870,353.122742 256.716156,352.988983 
	C243.772659,352.857819 233.226471,342.179688 233.018829,328.909760 
	C232.935562,323.587982 233.017975,318.263550 233.033173,312.472290 
	C248.724640,312.012604 264.407898,312.020966 280.524902,312.016785 
z" data-index="12"></path>
<path fill="#7936BF" opacity="1.000000" stroke="none" d="
M226.930603,216.879150 
	C219.168839,224.740891 210.295914,227.146072 200.279144,223.226486 
	C190.912155,219.561142 185.675583,212.309723 185.113129,202.290207 
	C184.549332,192.246124 189.103134,184.621506 197.907196,179.795471 
	C207.749863,174.400177 219.923248,176.878235 227.283035,185.510818 
	C234.929535,194.479675 234.884476,206.414963 226.930603,216.879150 
z" data-index="13"></path>
<path fill="#7936BF" opacity="1.000000" stroke="none" d="
M295.322815,179.047058 
	C306.388214,175.194809 316.081696,177.403381 322.947388,185.124161 
	C329.306366,192.275116 330.792664,202.540802 326.720947,211.187531 
	C322.587250,219.965866 313.480652,225.430740 303.755249,224.969223 
	C293.047180,224.461090 284.044525,216.765427 281.564545,206.000168 
	C279.100403,195.303665 284.076324,185.341705 295.322815,179.047058 
z" data-index="14" style="opacity: 1;"></path>
</svg>