<svg version="1.1" id="Layer_1" xmlns="http://www.w3.org/2000/svg" xmlns:xlink="http://www.w3.org/1999/xlink" x="0px" y="0px" width="100%" viewBox="0 0 512 512" enable-background="new 0 0 512 512" xml:space="preserve">
<path fill="#F5E6FE" opacity="1.000000" stroke="none" d="
M0.999994,437.000000 
	C1.000000,317.310699 1.000000,197.621384 1.336297,77.771713 
	C2.114353,76.792984 2.779249,76.022049 2.964723,75.149231 
	C6.249339,59.692188 13.285618,45.951576 23.515471,34.161095 
	C37.357990,18.206812 54.603497,7.356065 75.550926,2.921669 
	C76.143021,2.796328 76.521767,1.663206 77.000000,1.000000 
	C196.689316,1.000000 316.378632,1.000000 436.228333,1.336312 
	C437.207214,2.114332 437.977997,2.774767 438.851288,2.965259 
	C454.265137,6.327372 468.060181,13.193533 479.842651,23.494242 
	C495.752075,37.402954 506.637817,54.602962 511.078308,75.551201 
	C511.203857,76.143303 512.336792,76.521866 513.000000,77.000000 
	C513.000000,196.689316 513.000000,316.378632 512.663818,436.228149 
	C511.885803,437.206512 511.220795,437.977264 511.035339,438.849884 
	C507.750671,454.307312 500.714539,468.049011 490.484650,479.839508 
	C476.642212,495.793762 459.395142,506.643066 438.448059,511.078247 
	C437.856262,511.203522 437.477905,512.336792 437.000000,513.000000 
	C317.310699,513.000000 197.621384,513.000000 77.771881,512.663635 
	C76.793274,511.885529 76.022232,511.220428 75.149399,511.035339 
	C59.691109,507.756989 45.956848,500.711029 34.166035,490.486542 
	C18.206171,476.646851 7.358147,459.397522 2.921680,438.449310 
	C2.796263,437.857117 1.663197,437.478333 0.999994,437.000000 
M298.430481,261.040039 
	C311.625641,242.258026 328.052673,230.816254 352.963226,237.741928 
	C351.527557,233.877213 350.435577,230.412247 348.168182,228.099762 
	C340.591888,220.372864 332.746124,212.888992 324.672668,205.682800 
	C322.034668,203.328156 320.899750,201.107635 320.933319,197.626831 
	C321.085968,181.796021 321.030609,165.962830 320.985229,150.130692 
	C320.966217,143.496460 318.543488,140.063309 313.300507,139.960953 
	C302.472260,139.749603 291.635101,139.771576 280.805634,139.947281 
	C275.870544,140.027344 273.077850,143.290085 273.008392,148.282028 
	C272.975739,150.628632 273.002808,152.976074 273.002808,156.387894 
	C263.900513,147.712402 255.850006,139.993607 247.745438,132.331970 
	C242.879196,127.731682 239.108429,127.733475 234.276642,132.327667 
	C219.911407,145.986404 205.584900,159.685852 191.228577,173.353989 
	C172.168564,191.500336 153.106384,209.644440 134.018250,227.761200 
	C129.403336,232.141266 127.847961,237.375778 129.805817,242.575211 
	C132.004623,248.414520 137.223785,251.974197 143.676788,251.996368 
	C149.284515,252.015656 154.892349,252.000366 160.999527,252.000366 
	C160.999527,254.444046 160.999435,256.236481 160.999557,258.028900 
	C161.000854,278.194214 161.325546,298.366791 160.874054,318.521973 
	C160.629547,329.437958 171.737015,342.567078 184.335968,342.219055 
	C199.822891,341.791290 215.330994,342.138275 230.829880,342.116821 
	C232.105850,342.115051 233.381454,341.856720 233.822296,341.808655 
	C240.790558,308.764832 258.083984,289.769104 293.728394,293.441101 
	C290.594116,280.573273 291.797211,273.638824 298.430481,261.040039 
M358.497864,269.001709 
	C356.375977,266.883087 354.317230,264.696381 352.119873,262.659149 
	C346.562775,257.506989 339.954437,255.221802 332.913086,258.353699 
	C328.697083,260.228912 325.334808,263.999786 321.544037,266.859253 
	C311.021454,274.796661 311.567444,289.668365 321.333588,296.955750 
	C322.744659,298.008698 323.813934,299.519684 324.334503,300.070618 
	C316.220581,308.496521 308.450287,316.565552 299.832520,325.514648 
	C297.967224,323.248535 296.296814,320.684448 294.118103,318.670105 
	C286.853699,311.953674 276.408508,312.194580 269.390686,319.039276 
	C267.244354,321.132660 265.138062,323.267334 263.025269,325.394806 
	C254.928543,333.547821 254.837723,344.215210 262.883240,352.347534 
	C270.966766,360.518250 279.375793,368.382202 287.191223,376.799286 
	C297.780273,388.203430 309.414856,387.615875 320.638672,375.836060 
	C331.386719,364.555603 330.171265,352.205048 319.896210,344.277771 
	C318.768585,343.407776 317.968292,342.113464 317.865967,341.995514 
	C326.101074,333.738983 334.010376,325.809143 342.382843,317.414948 
	C343.861145,319.026733 345.727509,321.402649 347.933685,323.403931 
	C354.959564,329.777191 364.781647,329.849274 371.943909,323.577484 
	C374.670410,321.190002 376.946747,318.281616 379.711121,315.945404 
	C387.536224,309.332214 386.023346,296.079956 379.175110,289.605682 
	C372.278198,283.085449 365.709869,276.217590 358.497864,269.001709 
z" data-index="0" style="visibility: visible; opacity: 1;"></path>

<path fill="#000000" opacity="1.000000" stroke="none" d="
M0.999994,437.468689 
	C1.663197,437.478333 2.796263,437.857117 2.921680,438.449310 
	C7.358147,459.397522 18.206171,476.646851 34.166035,490.486542 
	C45.956848,500.711029 59.691109,507.756989 75.149399,511.035339 
	C76.022232,511.220428 76.793274,511.885529 77.305847,512.663635 
	C51.739792,513.000000 26.479582,513.000000 1.000000,513.000000 
	C1.000000,487.979523 1.000000,462.958435 0.999994,437.468689 
z" data-index="2" style="visibility: hidden; opacity: 1;"></path>

<path fill="#000000" opacity="1.000000" stroke="none" d="
M513.000000,76.531342 
	C512.336792,76.521866 511.203857,76.143303 511.078308,75.551201 
	C506.637817,54.602962 495.752075,37.402954 479.842651,23.494242 
	C468.060181,13.193533 454.265137,6.327372 438.851288,2.965259 
	C437.977997,2.774767 437.207214,2.114332 436.694336,1.336312 
	C462.260223,1.000000 487.520416,1.000000 513.000000,1.000000 
	C513.000000,26.020468 513.000000,51.041576 513.000000,76.531342 
z" data-index="4" style="visibility: hidden; opacity: 1;"></path>
<path fill="#BE63F9" opacity="1.000000" stroke="none" d="
M298.251587,261.361755 
	C291.797211,273.638824 290.594116,280.573273 293.728394,293.441101 
	C258.083984,289.769104 240.790558,308.764832 233.822296,341.808655 
	C233.381454,341.856720 232.105850,342.115051 230.829880,342.116821 
	C215.330994,342.138275 199.822891,341.791290 184.335968,342.219055 
	C171.737015,342.567078 160.629547,329.437958 160.874054,318.521973 
	C161.325546,298.366791 161.000854,278.194214 160.999557,258.028900 
	C160.999435,256.236481 160.999527,254.444046 160.999527,252.000366 
	C154.892349,252.000366 149.284515,252.015656 143.676788,251.996368 
	C137.223785,251.974197 132.004623,248.414520 129.805817,242.575211 
	C127.847961,237.375778 129.403336,232.141266 134.018250,227.761200 
	C153.106384,209.644440 172.168564,191.500336 191.228577,173.353989 
	C205.584900,159.685852 219.911407,145.986404 234.276642,132.327667 
	C239.108429,127.733475 242.879196,127.731682 247.745438,132.331970 
	C255.850006,139.993607 263.900513,147.712402 273.002808,156.387894 
	C273.002808,152.976074 272.975739,150.628632 273.008392,148.282028 
	C273.077850,143.290085 275.870544,140.027344 280.805634,139.947281 
	C291.635101,139.771576 302.472260,139.749603 313.300507,139.960953 
	C318.543488,140.063309 320.966217,143.496460 320.985229,150.130692 
	C321.030609,165.962830 321.085968,181.796021 320.933319,197.626831 
	C320.899750,201.107635 322.034668,203.328156 324.672668,205.682800 
	C332.746124,212.888992 340.591888,220.372864 348.168182,228.099762 
	C350.435577,230.412247 351.527557,233.877213 352.963226,237.741928 
	C328.052673,230.816254 311.625641,242.258026 298.251587,261.361755 
z" data-index="5" style="visibility: visible; opacity: 1; fill: rgb(66, 53, 115);"></path>
<path fill="#D9A4FC" opacity="1.000000" stroke="none" d="
M358.747711,269.251892 
	C365.709869,276.217590 372.278198,283.085449 379.175110,289.605682 
	C386.023346,296.079956 387.536224,309.332214 379.711121,315.945404 
	C376.946747,318.281616 374.670410,321.190002 371.943909,323.577484 
	C364.781647,329.849274 354.959564,329.777191 347.933685,323.403931 
	C345.727509,321.402649 343.861145,319.026733 342.382843,317.414948 
	C334.010376,325.809143 326.101074,333.738983 317.865967,341.995514 
	C317.968292,342.113464 318.768585,343.407776 319.896210,344.277771 
	C330.171265,352.205048 331.386719,364.555603 320.638672,375.836060 
	C309.414856,387.615875 297.780273,388.203430 287.191223,376.799286 
	C279.375793,368.382202 270.966766,360.518250 262.883240,352.347534 
	C254.837723,344.215210 254.928543,333.547821 263.025269,325.394806 
	C265.138062,323.267334 267.244354,321.132660 269.390686,319.039276 
	C276.408508,312.194580 286.853699,311.953674 294.118103,318.670105 
	C296.296814,320.684448 297.967224,323.248535 299.832520,325.514648 
	C308.450287,316.565552 316.220581,308.496521 324.334503,300.070618 
	C323.813934,299.519684 322.744659,298.008698 321.333588,296.955750 
	C311.567444,289.668365 311.021454,274.796661 321.544037,266.859253 
	C325.334808,263.999786 328.697083,260.228912 332.913086,258.353699 
	C339.954437,255.221802 346.562775,257.506989 352.119873,262.659149 
	C354.317230,264.696381 356.375977,266.883087 358.747711,269.251892 
z" data-index="6" style="visibility: visible; opacity: 1; fill: rgb(128, 114, 182);"></path>
</svg>