<svg version="1.1" id="Layer_1" xmlns="http://www.w3.org/2000/svg" xmlns:xlink="http://www.w3.org/1999/xlink" x="0px" y="0px" width="100%" viewBox="0 0 512 512" enable-background="new 0 0 512 512" xml:space="preserve">



<path fill="#EACCFC" opacity="1.000000" stroke="none" d="
M92.360687,370.611328 
	C74.962898,345.221344 63.852711,317.605194 59.279541,287.605865 
	C56.450935,269.050598 56.259438,250.371017 58.717827,231.559982 
	C63.285854,196.606537 75.886520,165.037384 97.071609,137.056671 
	C124.006241,101.482124 158.926788,77.223015 201.975067,64.785843 
	C223.088867,58.685806 244.626282,55.968773 266.452057,57.146694 
	C308.028595,59.390556 345.798309,72.804070 378.812561,98.424675 
	C412.065857,124.230782 435.281860,157.254623 447.953766,197.486145 
	C452.399017,211.599274 454.856812,226.073151 456.157471,240.872513 
	C459.026398,273.515564 453.701172,304.714020 441.161133,334.789124 
	C433.366516,353.483185 422.846466,370.503571 409.666748,385.973267 
	C390.482971,408.490265 367.721771,426.180664 340.862030,438.558746 
	C322.493042,447.023895 303.381378,453.072174 283.173889,454.980865 
	C272.284912,456.009369 261.299896,457.206635 250.410721,456.825806 
	C217.516541,455.675476 186.631393,447.075562 157.893707,430.664551 
	C139.339417,420.068909 123.141815,406.704163 108.755135,391.100891 
	C102.920761,384.773193 97.930626,377.667084 92.360687,370.611328 
M285.857117,330.666718 
	C285.668365,332.484497 285.484863,334.302856 285.289886,336.119965 
	C284.550232,343.013031 285.348419,343.901123 292.371063,343.902924 
	C311.861511,343.907959 331.351959,343.904816 350.842407,343.904602 
	C360.504333,343.904480 370.167328,343.820007 379.827667,343.944031 
	C383.742035,343.994324 385.383636,342.334045 384.957520,338.512329 
	C384.478363,334.215363 383.953979,329.923187 383.507904,325.622833 
	C383.009521,320.817871 380.361908,317.642548 376.016327,315.881104 
	C371.090576,313.884491 365.955292,312.351746 361.177094,310.062195 
	C357.870331,308.477722 352.878387,306.387604 352.345490,303.769196 
	C350.538208,294.889038 353.387329,286.545746 359.634308,279.795746 
	C362.622009,276.567505 364.134979,270.792084 362.753387,266.898010 
	C361.947540,264.626740 361.612274,262.020844 361.765594,259.610016 
	C362.146240,253.626144 362.189453,247.556488 357.410980,243.345657 
	C350.592957,237.337524 343.505280,231.368607 333.017609,232.043030 
	C333.017609,229.752365 333.017609,227.959579 333.017609,226.166794 
	C333.017578,209.508301 333.029633,192.849777 333.011261,176.191299 
	C333.004578,170.110321 332.036163,169.399826 326.278259,171.202759 
	C307.079742,177.214279 287.918701,183.349426 268.656525,189.149048 
	C265.861115,189.990707 262.376404,189.977692 259.576599,189.138809 
	C240.466293,183.412857 221.482147,177.266174 202.377243,171.521454 
	C199.723938,170.723633 196.420319,170.690674 193.774628,171.487915 
	C173.721786,177.530624 153.781128,183.944733 133.745621,190.046509 
	C130.018845,191.181473 128.942322,193.153580 128.951462,196.896637 
	C129.059586,241.207993 129.015976,285.519714 129.026688,329.831329 
	C129.028214,336.168060 129.923843,336.791809 136.157806,334.846741 
	C155.522522,328.804779 174.858444,322.668396 194.271317,316.785645 
	C196.630035,316.070831 199.576904,316.062103 201.934753,316.774048 
	C221.195816,322.590027 240.350143,328.760376 259.625458,334.526978 
	C262.413239,335.360992 265.778473,335.120697 268.690338,334.501831 
	C274.349854,333.298981 279.877289,331.474670 285.857117,330.666718 
z" data-index="1" style="opacity: 1; visibility: hidden;"></path>
<path fill="#692992" opacity="1.000000" stroke="none" d="
M285.658264,330.287262 
	C279.877289,331.474670 274.349854,333.298981 268.690338,334.501831 
	C265.778473,335.120697 262.413239,335.360992 259.625458,334.526978 
	C240.350143,328.760376 221.195816,322.590027 201.934753,316.774048 
	C199.576904,316.062103 196.630035,316.070831 194.271317,316.785645 
	C174.858444,322.668396 155.522522,328.804779 136.157806,334.846741 
	C129.923843,336.791809 129.028214,336.168060 129.026688,329.831329 
	C129.015976,285.519714 129.059586,241.207993 128.951462,196.896637 
	C128.942322,193.153580 130.018845,191.181473 133.745621,190.046509 
	C153.781128,183.944733 173.721786,177.530624 193.774628,171.487915 
	C196.420319,170.690674 199.723938,170.723633 202.377243,171.521454 
	C221.482147,177.266174 240.466293,183.412857 259.576599,189.138809 
	C262.376404,189.977692 265.861115,189.990707 268.656525,189.149048 
	C287.918701,183.349426 307.079742,177.214279 326.278259,171.202759 
	C332.036163,169.399826 333.004578,170.110321 333.011261,176.191299 
	C333.029633,192.849777 333.017578,209.508301 333.017609,226.166794 
	C333.017609,227.959579 333.017609,229.752365 333.017609,232.043030 
	C343.505280,231.368607 350.592957,237.337524 357.410980,243.345657 
	C362.189453,247.556488 362.146240,253.626144 361.765594,259.610016 
	C361.612274,262.020844 361.947540,264.626740 362.753387,266.898010 
	C364.134979,270.792084 362.622009,276.567505 359.634308,279.795746 
	C353.387329,286.545746 350.538208,294.889038 352.345490,303.769196 
	C352.878387,306.387604 357.870331,308.477722 361.177094,310.062195 
	C365.955292,312.351746 371.090576,313.884491 376.016327,315.881104 
	C380.361908,317.642548 383.009521,320.817871 383.507904,325.622833 
	C383.953979,329.923187 384.478363,334.215363 384.957520,338.512329 
	C385.383636,342.334045 383.742035,343.994324 379.827667,343.944031 
	C370.167328,343.820007 360.504333,343.904480 350.842407,343.904602 
	C331.351959,343.904816 311.861511,343.907959 292.371063,343.902924 
	C285.348419,343.901123 284.550232,343.013031 285.289886,336.119965 
	C285.484863,334.302856 285.668365,332.484497 285.658264,330.287262 
M356.280640,271.099121 
	C351.846436,273.138245 350.421448,270.691589 349.365601,266.864441 
	C348.712494,264.497192 349.472412,260.792542 344.992188,260.874237 
	C337.728119,261.006683 330.459839,260.909943 322.515869,260.909943 
	C319.875305,263.848389 321.540497,272.255066 312.016174,269.994415 
	C313.122803,272.351318 313.566162,274.782349 314.467682,274.966156 
	C319.135468,275.917847 318.588318,279.901520 319.953400,282.931549 
	C321.632660,286.659058 323.504364,290.513977 326.174561,293.534332 
	C331.054993,299.054718 338.965118,299.236237 343.823273,293.815826 
	C346.722504,290.581116 348.794434,286.403015 350.456329,282.329956 
	C351.626404,279.462311 351.443207,276.211273 355.397919,275.128387 
	C356.231873,274.900024 356.444122,272.401276 357.226593,270.988190 
	C357.155273,271.003357 357.083984,271.018524 356.280640,271.099121 
M135.014694,226.500000 
	C135.014694,260.542786 135.014694,294.585571 135.014694,329.140991 
	C151.379700,324.015045 167.055481,319.086975 182.743088,314.196899 
	C195.215729,310.308960 195.115341,310.328827 195.199081,297.454956 
	C195.220749,294.122559 194.451385,292.673523 190.920273,291.647827 
	C175.004105,287.024689 163.612335,276.902466 156.704239,261.815796 
	C153.622971,255.086594 155.418030,249.104950 161.147568,246.638489 
	C166.948196,244.141464 172.049530,246.975098 175.065842,253.994186 
	C178.804672,262.694580 185.370773,268.302368 194.769775,271.451996 
	C194.769775,239.787338 194.769775,208.723434 194.769775,177.660599 
	C194.392746,177.610596 194.035904,177.454269 193.754547,177.541489 
	C175.022797,183.347290 156.276733,189.109619 137.618011,195.142029 
	C136.404907,195.534241 135.172195,197.995804 135.130035,199.527267 
	C134.891937,208.179352 135.014816,216.841370 135.014694,226.500000 
M326.984985,205.500000 
	C326.984985,196.390198 326.984985,187.280411 326.984985,178.247238 
	C326.152924,178.125641 325.792023,177.960342 325.509003,178.047607 
	C306.757416,183.829041 287.994934,189.577118 269.308960,195.564056 
	C268.183350,195.924698 267.009888,198.190720 266.981873,199.592606 
	C266.782227,209.586899 266.874420,219.587051 266.874237,229.585327 
	C266.874023,242.894119 266.874207,256.202911 266.874207,269.749847 
	C268.918182,270.211670 270.668488,270.613861 272.421814,271.002167 
	C282.899384,273.322510 292.967255,276.630646 301.655212,283.221771 
	C307.359558,287.549377 308.524841,293.437378 304.696167,298.368164 
	C301.103668,302.994812 295.228638,303.356781 289.657166,299.174072 
	C283.010986,294.184540 275.510651,291.515015 267.278473,290.317352 
	C267.278473,303.212891 267.278473,315.771149 267.278473,328.782104 
	C273.536255,326.824829 279.402771,325.024811 285.237671,323.127655 
	C286.118317,322.841309 286.886566,322.147552 287.647003,321.564362 
	C290.358795,319.484589 292.800262,316.878387 295.799835,315.389984 
	C299.943237,313.333893 304.662140,312.445038 308.828064,310.424438 
	C312.121094,308.827271 317.091309,306.692474 317.598663,304.075592 
	C319.315125,295.222534 316.785461,286.726715 310.332703,280.108276 
	C306.143616,275.811646 305.272552,270.525146 308.935608,265.447540 
	C309.391693,264.815308 309.981812,264.083740 310.015656,263.374634 
	C310.242126,258.630402 311.032440,253.770874 310.312469,249.155823 
	C309.133179,241.596527 313.651306,238.113647 318.987610,235.036636 
	C321.360626,233.668320 324.155457,233.031570 326.984985,231.978607 
	C326.984985,223.469925 326.984985,214.984970 326.984985,205.500000 
M261.022339,253.496552 
	C261.022339,239.173141 261.052887,224.849609 261.005219,210.526367 
	C260.989227,205.720840 262.489044,199.676193 260.165070,196.461060 
	C257.861877,193.274643 251.651505,192.817764 247.087357,191.377533 
	C231.891739,186.582489 216.665787,181.883530 201.183609,177.064362 
	C201.183609,209.293076 201.183609,241.036224 201.183609,274.206268 
	C221.228577,272.061279 240.890106,269.957306 261.022369,267.802979 
	C261.022369,263.761414 261.022369,259.128204 261.022339,253.496552 
M375.935364,322.794373 
	C374.025299,321.804749 372.167877,320.691925 370.195251,319.848724 
	C364.410767,317.376221 358.463226,315.250916 352.821289,312.494812 
	C350.285522,311.256042 348.833282,310.850647 346.363953,312.865631 
	C338.095001,319.613190 330.773499,319.229156 322.619965,312.214325 
	C322.001617,311.682312 321.334686,311.206757 321.219269,311.116913 
	C312.796448,314.523560 304.744232,317.547699 296.935516,321.106201 
	C295.041290,321.969421 293.234650,324.390289 292.647614,326.453400 
	C291.634613,330.013245 291.609100,333.854095 291.146545,337.769257 
	C320.587738,337.769257 349.497162,337.769257 379.058807,337.769257 
	C378.161926,332.732635 377.326996,328.043793 375.935364,322.794373 
M202.530090,310.776581 
	C221.897034,316.793884 241.263977,322.811188 260.648315,328.833893 
	C260.648315,315.258820 260.648315,302.393677 260.648315,288.064697 
	C240.563889,290.312439 221.061890,292.495026 200.711533,294.772552 
	C201.045303,299.671143 201.410110,305.025421 202.530090,310.776581 
M171.779770,273.713684 
	C181.226913,283.424133 192.920074,288.529724 206.261887,287.905212 
	C218.821182,287.317444 231.276276,284.780457 243.822678,283.573547 
	C261.081085,281.913361 277.736938,283.815887 292.554474,293.885345 
	C295.213684,295.692444 297.958313,297.559662 300.313171,294.214813 
	C302.752960,290.749268 299.814331,288.320099 297.203339,287.099091 
	C289.427917,283.463074 281.682678,279.338745 273.460144,277.170532 
	C256.201050,272.619476 238.816376,274.811646 221.569305,278.388336 
	C199.048035,283.058838 176.792175,275.912628 168.702316,254.576859 
	C168.204727,253.264572 165.315369,252.859161 163.538834,252.031799 
	C162.778610,253.967819 160.826752,256.541290 161.462845,257.730347 
	C164.336121,263.101471 167.941681,268.080841 171.779770,273.713684 
M316.886810,258.981110 
	C317.930389,254.266830 321.183990,253.842178 325.275055,254.300034 
	C330.833862,254.922165 336.433655,255.230011 342.024353,255.493637 
	C344.808868,255.624939 348.029755,254.469513 350.285217,255.529846 
	C352.384491,256.516754 353.464752,259.671326 354.907501,261.747681 
	C357.615387,254.257187 356.461853,250.460083 349.904877,245.513077 
	C348.992615,244.824783 348.305664,243.841827 347.494659,243.014664 
	C341.119720,236.512817 325.713501,235.857986 318.947296,241.916885 
	C317.781067,242.961212 316.612244,244.463745 316.322235,245.928391 
	C315.740112,248.868149 315.627045,251.926376 315.594513,254.938675 
	C315.578003,256.468994 316.156921,258.005707 316.886810,258.981110 
M344.044617,307.380524 
	C344.897125,305.268890 345.749634,303.157257 346.602112,301.045593 
	C338.616364,304.363647 331.630798,304.241852 324.068970,300.755707 
	C324.606415,303.416656 325.162292,306.215118 326.836334,307.907562 
	C332.209869,313.340118 336.394287,313.162018 344.044617,307.380524 
z" data-index="2" style="opacity: 1; visibility: visible; fill: rgb(66, 53, 115);"></path>
<path fill="#E9CBFB" opacity="1.000000" stroke="none" d="
M135.014709,226.000000 
	C135.014816,216.841370 134.891937,208.179352 135.130035,199.527267 
	C135.172195,197.995804 136.404907,195.534241 137.618011,195.142029 
	C156.276733,189.109619 175.022797,183.347290 193.754547,177.541489 
	C194.035904,177.454269 194.392746,177.610596 194.769775,177.660599 
	C194.769775,208.723434 194.769775,239.787338 194.769775,271.451996 
	C185.370773,268.302368 178.804672,262.694580 175.065842,253.994186 
	C172.049530,246.975098 166.948196,244.141464 161.147568,246.638489 
	C155.418030,249.104950 153.622971,255.086594 156.704239,261.815796 
	C163.612335,276.902466 175.004105,287.024689 190.920273,291.647827 
	C194.451385,292.673523 195.220749,294.122559 195.199081,297.454956 
	C195.115341,310.328827 195.215729,310.308960 182.743088,314.196899 
	C167.055481,319.086975 151.379700,324.015045 135.014694,329.140991 
	C135.014694,294.585571 135.014694,260.542786 135.014709,226.000000 
M144.832413,221.563873 
	C143.051666,227.527161 144.925919,232.410294 149.626862,236.115280 
	C154.049210,239.600708 159.037064,240.036819 164.067657,237.379791 
	C169.094406,234.724808 171.408279,230.409927 171.218323,224.745209 
	C171.017227,218.748672 166.800293,213.560822 161.025116,212.187439 
	C154.339417,210.597519 148.663757,213.651291 144.832413,221.563873 
z" data-index="3" style="opacity: 1; visibility: visible; fill: rgb(66, 53, 115);"></path>
<path fill="#E9CBFB" opacity="1.000000" stroke="none" d="
M326.984985,206.000000 
	C326.984985,214.984970 326.984985,223.469925 326.984985,231.978607 
	C324.155457,233.031570 321.360626,233.668320 318.987610,235.036636 
	C313.651306,238.113647 309.133179,241.596527 310.312469,249.155823 
	C311.032440,253.770874 310.242126,258.630402 310.015656,263.374634 
	C309.981812,264.083740 309.391693,264.815308 308.935608,265.447540 
	C305.272552,270.525146 306.143616,275.811646 310.332703,280.108276 
	C316.785461,286.726715 319.315125,295.222534 317.598663,304.075592 
	C317.091309,306.692474 312.121094,308.827271 308.828064,310.424438 
	C304.662140,312.445038 299.943237,313.333893 295.799835,315.389984 
	C292.800262,316.878387 290.358795,319.484589 287.647003,321.564362 
	C286.886566,322.147552 286.118317,322.841309 285.237671,323.127655 
	C279.402771,325.024811 273.536255,326.824829 267.278473,328.782104 
	C267.278473,315.771149 267.278473,303.212891 267.278473,290.317352 
	C275.510651,291.515015 283.010986,294.184540 289.657166,299.174072 
	C295.228638,303.356781 301.103668,302.994812 304.696167,298.368164 
	C308.524841,293.437378 307.359558,287.549377 301.655212,283.221771 
	C292.967255,276.630646 282.899384,273.322510 272.421814,271.002167 
	C270.668488,270.613861 268.918182,270.211670 266.874207,269.749847 
	C266.874207,256.202911 266.874023,242.894119 266.874237,229.585327 
	C266.874420,219.587051 266.782227,209.586899 266.981873,199.592606 
	C267.009888,198.190720 268.183350,195.924698 269.308960,195.564056 
	C287.994934,189.577118 306.757416,183.829041 325.509003,178.047607 
	C325.792023,177.960342 326.152924,178.125641 326.984985,178.247238 
	C326.984985,187.280411 326.984985,196.390198 326.984985,206.000000 
z" data-index="4" style="opacity: 1; visibility: visible; fill: rgb(66, 53, 115);"></path>
<path fill="#EACBFC" opacity="1.000000" stroke="none" d="
M261.022339,253.995758 
	C261.022369,259.128204 261.022369,263.761414 261.022369,267.802979 
	C240.890106,269.957306 221.228577,272.061279 201.183609,274.206268 
	C201.183609,241.036224 201.183609,209.293076 201.183609,177.064362 
	C216.665787,181.883530 231.891739,186.582489 247.087357,191.377533 
	C251.651505,192.817764 257.861877,193.274643 260.165070,196.461060 
	C262.489044,199.676193 260.989227,205.720840 261.005219,210.526367 
	C261.052887,224.849609 261.022339,239.173141 261.022339,253.995758 
z" data-index="5" style="opacity: 1; visibility: visible; fill: rgb(66, 53, 115);"></path>
<path fill="#E9CBFB" opacity="1.000000" stroke="none" d="
M376.213715,323.074646 
	C377.326996,328.043793 378.161926,332.732635 379.058807,337.769257 
	C349.497162,337.769257 320.587738,337.769257 291.146545,337.769257 
	C291.609100,333.854095 291.634613,330.013245 292.647614,326.453400 
	C293.234650,324.390289 295.041290,321.969421 296.935516,321.106201 
	C304.744232,317.547699 312.796448,314.523560 321.219269,311.116913 
	C321.334686,311.206757 322.001617,311.682312 322.619965,312.214325 
	C330.773499,319.229156 338.095001,319.613190 346.363953,312.865631 
	C348.833282,310.850647 350.285522,311.256042 352.821289,312.494812 
	C358.463226,315.250916 364.410767,317.376221 370.195251,319.848724 
	C372.167877,320.691925 374.025299,321.804749 376.213715,323.074646 
z" data-index="6" style="opacity: 1; visibility: visible; fill: rgb(173, 96, 225);"></path>
<path fill="#E9CBFB" opacity="1.000000" stroke="none" d="
M202.152512,310.578125 
	C201.410110,305.025421 201.045303,299.671143 200.711533,294.772552 
	C221.061890,292.495026 240.563889,290.312439 260.648315,288.064697 
	C260.648315,302.393677 260.648315,315.258820 260.648315,328.833893 
	C241.263977,322.811188 221.897034,316.793884 202.152512,310.578125 
z" data-index="7" style="opacity: 1; visibility: visible; fill: rgb(66, 53, 115);"></path>
<path fill="#E6C8F9" opacity="1.000000" stroke="none" d="
M171.531616,273.457520 
	C167.941681,268.080841 164.336121,263.101471 161.462845,257.730347 
	C160.826752,256.541290 162.778610,253.967819 163.538834,252.031799 
	C165.315369,252.859161 168.204727,253.264572 168.702316,254.576859 
	C176.792175,275.912628 199.048035,283.058838 221.569305,278.388336 
	C238.816376,274.811646 256.201050,272.619476 273.460144,277.170532 
	C281.682678,279.338745 289.427917,283.463074 297.203339,287.099091 
	C299.814331,288.320099 302.752960,290.749268 300.313171,294.214813 
	C297.958313,297.559662 295.213684,295.692444 292.554474,293.885345 
	C277.736938,283.815887 261.081085,281.913361 243.822678,283.573547 
	C231.276276,284.780457 218.821182,287.317444 206.261887,287.905212 
	C192.920074,288.529724 181.226913,283.424133 171.531616,273.457520 
z" data-index="8" style="opacity: 1; visibility: visible; fill: rgb(173, 96, 225);"></path>
<path fill="#E8C9FA" opacity="1.000000" stroke="none" d="
M356.942841,270.948639 
	C356.444122,272.401276 356.231873,274.900024 355.397919,275.128387 
	C351.443207,276.211273 351.626404,279.462311 350.456329,282.329956 
	C348.794434,286.403015 346.722504,290.581116 343.823273,293.815826 
	C338.965118,299.236237 331.054993,299.054718 326.174561,293.534332 
	C323.504364,290.513977 321.632660,286.659058 319.953400,282.931549 
	C318.588318,279.901520 319.135468,275.917847 314.467682,274.966156 
	C313.566162,274.782349 313.122803,272.351318 312.016174,269.994415 
	C321.540497,272.255066 319.875305,263.848389 322.515869,260.909943 
	C330.459839,260.909943 337.728119,261.006683 344.992188,260.874237 
	C349.472412,260.792542 348.712494,264.497192 349.365601,266.864441 
	C350.421448,270.691589 351.846436,273.138245 356.630920,271.043701 
	C356.981232,270.988281 356.942841,270.948639 356.942841,270.948639 
z" data-index="9" style="opacity: 1; visibility: visible; fill: rgb(173, 96, 225);"></path>
<path fill="#E7C8F9" opacity="1.000000" stroke="none" d="
M316.676758,259.260315 
	C316.156921,258.005707 315.578003,256.468994 315.594513,254.938675 
	C315.627045,251.926376 315.740112,248.868149 316.322235,245.928391 
	C316.612244,244.463745 317.781067,242.961212 318.947296,241.916885 
	C325.713501,235.857986 341.119720,236.512817 347.494659,243.014664 
	C348.305664,243.841827 348.992615,244.824783 349.904877,245.513077 
	C356.461853,250.460083 357.615387,254.257187 354.907501,261.747681 
	C353.464752,259.671326 352.384491,256.516754 350.285217,255.529846 
	C348.029755,254.469513 344.808868,255.624939 342.024353,255.493637 
	C336.433655,255.230011 330.833862,254.922165 325.275055,254.300034 
	C321.183990,253.842178 317.930389,254.266830 316.676758,259.260315 
z" data-index="10" style="opacity: 1; visibility: visible; fill: rgb(173, 96, 225);"></path>
<path fill="#E2C2F5" opacity="1.000000" stroke="none" d="
M343.780365,307.648315 
	C336.394287,313.162018 332.209869,313.340118 326.836334,307.907562 
	C325.162292,306.215118 324.606415,303.416656 324.068970,300.755707 
	C331.630798,304.241852 338.616364,304.363647 346.602112,301.045593 
	C345.749634,303.157257 344.897125,305.268890 343.780365,307.648315 
z" data-index="11" style="opacity: 1; visibility: visible; fill: rgb(173, 96, 225);"></path>
<path fill="#E8C9FA" opacity="1.000000" stroke="none" d="
M356.996948,271.010986 
	C357.083984,271.018524 357.155273,271.003357 357.084717,270.968414 
	C356.942841,270.948639 356.981232,270.988281 356.996948,271.010986 
z" data-index="12" style="opacity: 1;"></path>
<path fill="#692992" opacity="1.000000" stroke="none" d="
M144.924652,221.182236 
	C148.663757,213.651291 154.339417,210.597519 161.025116,212.187439 
	C166.800293,213.560822 171.017227,218.748672 171.218323,224.745209 
	C171.408279,230.409927 169.094406,234.724808 164.067657,237.379791 
	C159.037064,240.036819 154.049210,239.600708 149.626862,236.115280 
	C144.925919,232.410294 143.051666,227.527161 144.924652,221.182236 
M153.147858,231.559418 
	C158.798599,234.149796 163.632965,232.727020 164.978210,227.895615 
	C166.008850,224.194168 165.274734,220.807022 161.664413,218.834671 
	C158.243912,216.966064 154.781601,217.259918 152.140884,220.305099 
	C149.038162,223.883072 149.354904,227.578293 153.147858,231.559418 
z" data-index="13" style="opacity: 1; visibility: visible; fill: rgb(66, 53, 115);"></path>
<path fill="#E6C8F9" opacity="1.000000" stroke="none" d="
M152.853302,231.298462 
	C149.354904,227.578293 149.038162,223.883072 152.140884,220.305099 
	C154.781601,217.259918 158.243912,216.966064 161.664413,218.834671 
	C165.274734,220.807022 166.008850,224.194168 164.978210,227.895615 
	C163.632965,232.727020 158.798599,234.149796 152.853302,231.298462 
z" data-index="14" style="opacity: 1; visibility: visible; fill: rgb(173, 96, 225);"></path>
</svg>